<?xml version="1.0" encoding="UTF-8"?>
<svg version="1.1" xmlns="http://www.w3.org/2000/svg" width="1024" height="1024">
<path d="M0 0 C5.49881689 2.47535166 9.50772637 6.36639033 13.8125 10.5 C14.72 11.221875 15.6275 11.94375 16.5625 12.6875 C23.03675033 17.90286832 23.03675033 17.90286832 24.875 21.6875 C25.64117111 23.63237167 25.64117111 23.63237167 27.48046875 24.23828125 C30.90033526 26.08856079 33.34818801 28.74672659 36.0625 31.5 C36.61679687 32.0465625 37.17109375 32.593125 37.7421875 33.15625 C41.8125 37.2466133 41.8125 37.2466133 41.8125 39.5 C42.39515625 39.76554687 42.9778125 40.03109375 43.578125 40.3046875 C49.93952145 43.70781217 55.03116326 49.62458595 59.953125 54.80078125 C61.81558264 56.50281712 63.51060382 57.49673994 65.8125 58.5 C65.8125 59.16 65.8125 59.82 65.8125 60.5 C67.1325 61.16 68.4525 61.82 69.8125 62.5 C69.8125 63.16 69.8125 63.82 69.8125 64.5 C71.1325 65.16 72.4525 65.82 73.8125 66.5 C73.8125 67.49 73.8125 68.48 73.8125 69.5 C74.8025 69.5 75.7925 69.5 76.8125 69.5 C76.8125 70.49 76.8125 71.48 76.8125 72.5 C77.43125 72.5825 78.05 72.665 78.6875 72.75 C81.48188743 73.73625439 81.529452 74.93390399 82.8125 77.5 C83.41884277 77.63728516 84.02518555 77.77457031 84.64990234 77.91601562 C87.37697056 78.65242872 88.46307384 79.82034589 90.4140625 81.84375 C91.39632812 82.84728516 91.39632812 82.84728516 92.3984375 83.87109375 C93.07132813 84.57363281 93.74421875 85.27617187 94.4375 86 C95.78171383 87.38749344 97.1279711 88.773011 98.4765625 90.15625 C99.06904785 90.77306641 99.6615332 91.38988281 100.27197266 92.02539062 C101.76382078 93.5987507 101.76382078 93.5987507 103.8125 94.5 C103.8125 95.16 103.8125 95.82 103.8125 96.5 C104.8025 96.5 105.7925 96.5 106.8125 96.5 C108.34765625 97.99609375 108.34765625 97.99609375 109.875 99.9375 C111.9796333 102.65875193 111.9796333 102.65875193 114.8125 104.5 C114.8125 105.16 114.8125 105.82 114.8125 106.5 C115.8025 106.83 116.7925 107.16 117.8125 107.5 C119.39999782 109.18909768 120.78641918 110.98401943 122.21484375 112.80859375 C123.94371139 114.63891083 125.51447972 115.51229798 127.8125 116.5 C127.8125 117.16 127.8125 117.82 127.8125 118.5 C129.1325 119.16 130.4525 119.82 131.8125 120.5 C131.8125 121.16 131.8125 121.82 131.8125 122.5 C132.8025 122.83 133.7925 123.16 134.8125 123.5 C134.8125 124.16 134.8125 124.82 134.8125 125.5 C136.1325 126.16 137.4525 126.82 138.8125 127.5 C138.8125 128.16 138.8125 128.82 138.8125 129.5 C140.1325 130.16 141.4525 130.82 142.8125 131.5 C142.8125 132.16 142.8125 132.82 142.8125 133.5 C143.52792969 133.726875 144.24335937 133.95375 144.98046875 134.1875 C148.41742671 135.78035224 150.47734167 137.80134973 153.125 140.5 C154.00800781 141.386875 154.89101563 142.27375 155.80078125 143.1875 C157.8125 145.5 157.8125 145.5 157.8125 147.5 C158.8025 147.83 159.7925 148.16 160.8125 148.5 C160.8125 149.16 160.8125 149.82 160.8125 150.5 C161.39 150.78875 161.9675 151.0775 162.5625 151.375 C163.305 151.74625 164.0475 152.1175 164.8125 152.5 C165.451875 152.7475 166.09125 152.995 166.75 153.25 C169.77897368 155.08574162 171.59395724 157.76948584 173.8125 160.5 C174.8025 161.16 175.7925 161.82 176.8125 162.5 C176.8125 163.49 176.8125 164.48 176.8125 165.5 C178.4625 165.83 180.1125 166.16 181.8125 166.5 C181.8125 167.16 181.8125 167.82 181.8125 168.5 C182.34875 168.70625 182.885 168.9125 183.4375 169.125 C187.70539946 171.59588916 191.24122254 174.78616762 192.8125 179.5 C193.8025 179.83 194.7925 180.16 195.8125 180.5 C195.8125 181.49 195.8125 182.48 195.8125 183.5 C196.39257812 183.59925781 196.97265625 183.69851563 197.5703125 183.80078125 C201.76729851 185.10959745 204.66086768 188.54157119 207.8125 191.5 C208.42351563 192.06976563 209.03453125 192.63953125 209.6640625 193.2265625 C211.09472243 194.6029794 212.46032232 196.04640899 213.8125 197.5 C213.8125 198.16 213.8125 198.82 213.8125 199.5 C214.534375 199.54125 215.25625 199.5825 216 199.625 C219.93565538 200.84942612 221.32903682 203.29763958 223.8125 206.5 C224.8025 207.16 225.7925 207.82 226.8125 208.5 C227.286875 209.325 227.76125 210.15 228.25 211 C229.91078889 213.65726223 230.93848653 214.40985696 233.8125 215.5 C233.8125 216.16 233.8125 216.82 233.8125 217.5 C234.55653076 217.75434814 235.30056152 218.00869629 236.06713867 218.27075195 C238.97846852 219.57431316 240.53491238 220.88801443 242.73828125 223.16796875 C243.45306641 223.89693359 244.16785156 224.62589844 244.90429688 225.37695312 C245.63712891 226.13943359 246.36996094 226.90191406 247.125 227.6875 C251.94207094 232.65093414 256.78672918 237.44306549 262.0378418 241.94799805 C265.12149753 244.64476507 267.90453764 247.62495301 270.734375 250.58203125 C272.71743366 252.4122602 274.41294812 253.33763911 276.8125 254.5 C278.01770321 255.93321462 279.21934571 257.37029078 280.375 258.84375 C282.4841724 261.27388341 284.94166709 263.20799607 287.45703125 265.203125 C287.90433594 265.63109375 288.35164062 266.0590625 288.8125 266.5 C288.8125 267.16 288.8125 267.82 288.8125 268.5 C290.1325 269.16 291.4525 269.82 292.8125 270.5 C292.8125 271.16 292.8125 271.82 292.8125 272.5 C294.1325 273.16 295.4525 273.82 296.8125 274.5 C296.8125 275.16 296.8125 275.82 296.8125 276.5 C297.4725 276.5 298.1325 276.5 298.8125 276.5 C301.44713787 282.34560277 303.37381481 287.04487966 302.8125 293.5 C302.1525 293.5 301.4925 293.5 300.8125 293.5 C300.4825 296.14 300.1525 298.78 299.8125 301.5 C298.8225 301.83 297.8325 302.16 296.8125 302.5 C295.60367904 304.50016466 295.60367904 304.50016466 294.8125 306.5 C293.8225 306.5 292.8325 306.5 291.8125 306.5 C291.8125 307.16 291.8125 307.82 291.8125 308.5 C286.67672278 310.19251342 282.09286279 310.78095107 276.67407227 310.72705078 C275.89276443 310.72734283 275.1114566 310.72763489 274.30647278 310.72793579 C271.74716738 310.72655248 269.18816022 310.71103885 266.62890625 310.6953125 C264.84529276 310.69157881 263.0616772 310.68873352 261.27806091 310.68673706 C256.60094464 310.67912863 251.92395408 310.65950429 247.24688721 310.6373291 C242.46734314 310.61681037 237.68777861 310.60772249 232.90820312 310.59765625 C223.54291375 310.57625562 214.17771736 310.54215359 204.8125 310.5 C204.66080353 311.76863892 204.50910706 313.03727783 204.35281372 314.34436035 C203.98704901 317.40325381 203.45309314 320.17592637 202.4296875 323.09375 C202.15350586 323.88789307 201.87732422 324.68203613 201.59277344 325.50024414 C201.2940332 326.32516357 200.99529297 327.15008301 200.6875 328 C200.37329102 328.8758374 200.05908203 329.7516748 199.73535156 330.65405273 C190.93202399 354.84121723 178.25026558 377.04731385 161.890625 396.96484375 C158.92009662 400.58866502 156.04741181 404.28727894 153.16235352 407.97924805 C150.7344518 411.0781214 148.28645421 414.15669088 145.79296875 417.203125 C121.38581272 447.07065263 111.32983184 476.29757746 110.6015625 515.078125 C110.58721664 515.79109741 110.57287079 516.50406982 110.55809021 517.23864746 C110.50078328 520.15856206 110.44537724 523.07824683 110.41113281 525.99853516 C110.38365859 528.17136743 110.3379265 530.34318284 110.2890625 532.515625 C110.26924316 533.78696289 110.24942383 535.05830078 110.22900391 536.36816406 C109.76789929 539.83536803 109.49170327 540.4397731 106.8125 542.5 C104.50440311 543.18443775 104.50440311 543.18443775 101.82032776 543.60566711 C100.34589549 543.83996902 100.34589549 543.83996902 98.84167671 544.07900429 C94.13022772 544.73380261 89.41712573 545.30501302 84.68725586 545.80932617 C83.62979754 545.92529239 82.57233923 546.0412586 81.48283672 546.16073895 C77.99807184 546.54191951 74.51272597 546.9174784 71.02734375 547.29296875 C68.5524036 547.56250747 66.07749996 547.83238154 63.60263062 548.10256958 C57.68775594 548.74733645 51.77248933 549.38841697 45.85699272 550.02744651 C41.10637924 550.54067876 36.35591746 551.05529314 31.6055603 551.57089233 C30.93271065 551.64391844 30.259861 551.71694456 29.56662196 551.79218358 C28.20740949 551.93970377 26.84819715 552.08722516 25.48898494 552.23474777 C14.12226442 553.46825751 2.75511462 554.69775187 -8.61230469 555.92480469 C-18.32589181 556.97334959 -28.03890244 558.02696287 -37.75113392 559.08798885 C-44.06755654 559.77794605 -50.3843907 560.46399087 -56.70174694 561.14534855 C-60.09055879 561.51088817 -63.47915159 561.87818878 -66.86721802 562.25057983 C-70.49809515 562.64837848 -74.12973646 563.03822286 -77.76171875 563.42578125 C-78.76562653 563.53761749 -79.7695343 563.64945374 -80.80386353 563.76467896 C-98.624236 565.63375138 -98.624236 565.63375138 -104.4375 563.0625 C-116.68912137 551.64621645 -120.19751681 542.42108954 -121.07806396 525.90512085 C-121.26488113 522.43952172 -121.48242816 518.97579681 -121.6953125 515.51171875 C-121.73705597 514.82288101 -121.77879944 514.13404327 -121.82180786 513.42433167 C-124.38400963 471.27300325 -137.08600861 442.86707376 -163.9140625 410.296875 C-168.12219063 405.11986513 -172.16462511 399.82110536 -176.1875 394.5 C-176.63915527 393.90670898 -177.09081055 393.31341797 -177.55615234 392.70214844 C-184.42686094 383.65198268 -190.61044509 374.40069961 -196.1875 364.5 C-196.56116699 363.84306152 -196.93483398 363.18612305 -197.31982422 362.50927734 C-201.91176434 354.37302523 -205.94163902 346.10392098 -209.4375 337.4375 C-209.74244385 336.68380127 -210.0473877 335.93010254 -210.36157227 335.15356445 C-212.41623916 329.89510424 -214.13911859 324.55638826 -215.80761719 319.16625977 C-216.03742279 318.42722664 -216.26722839 317.68819351 -216.5039978 316.92676544 C-217.06622264 315.11817201 -217.62700795 313.30913118 -218.1875 311.5 C-219.74272118 311.48786972 -219.74272118 311.48786972 -221.32936096 311.47549438 C-231.11352439 311.39791694 -240.89755074 311.31014846 -250.68153477 311.21247292 C-255.71124592 311.1625859 -260.74093684 311.11625522 -265.77075195 311.078125 C-270.62729834 311.04117624 -275.4836723 310.99479033 -280.34007072 310.94193649 C-282.19032699 310.92344346 -284.04062015 310.90831682 -285.89093208 310.89665604 C-288.48809486 310.87970625 -291.08486712 310.85065061 -293.68188477 310.81884766 C-294.82232742 310.81560738 -294.82232742 310.81560738 -295.98580933 310.81230164 C-300.72971075 310.7383798 -304.6776737 309.98900283 -309.1875 308.5 C-309.1875 307.84 -309.1875 307.18 -309.1875 306.5 C-310.5075 306.17 -311.8275 305.84 -313.1875 305.5 C-313.5175 304.18 -313.8475 302.86 -314.1875 301.5 C-314.8475 301.5 -315.5075 301.5 -316.1875 301.5 C-318.89483176 295.62153064 -319.50644821 288.62457216 -317.51171875 282.38671875 C-316.6875 280.75 -316.6875 280.75 -315.1875 278.5 C-314.5275 278.5 -313.8675 278.5 -313.1875 278.5 C-313.11402344 277.75105469 -313.04054688 277.00210937 -312.96484375 276.23046875 C-311.96590424 272.72163097 -310.68320297 271.94208572 -307.75 269.8125 C-301.03615229 264.62693605 -295.24926932 258.64797473 -289.38305664 252.5324707 C-288.63918701 251.76894287 -287.89531738 251.00541504 -287.12890625 250.21875 C-286.13419312 249.18137695 -286.13419312 249.18137695 -285.11938477 248.12304688 C-283.06715162 246.39889093 -281.75342625 246.05538641 -279.1875 245.5 C-277.90313266 243.5162233 -277.90313266 243.5162233 -277.1875 241.5 C-276.5275 241.5 -275.8675 241.5 -275.1875 241.5 C-275.1875 240.84 -275.1875 240.18 -275.1875 239.5 C-273.83203125 238.203125 -273.83203125 238.203125 -272 236.75 C-269.56823158 234.74880627 -267.49990378 232.79460516 -265.5625 230.3125 C-263.1875 227.5 -263.1875 227.5 -260.984375 226.2421875 C-257.19533022 223.88197245 -254.22387773 220.94392784 -251.0625 217.8125 C-250.44246094 217.22533203 -249.82242188 216.63816406 -249.18359375 216.03320312 C-248.58417969 215.44087891 -247.98476563 214.84855469 -247.3671875 214.23828125 C-246.82819824 213.71274658 -246.28920898 213.18721191 -245.73388672 212.64575195 C-239.95724271 204.63013398 -240.79226281 195.55589099 -240.87866211 186.14160156 C-240.88278685 184.48191092 -240.88555333 182.82221644 -240.8870697 181.16252136 C-240.89314472 177.60102443 -240.90861236 174.03973822 -240.93144035 170.47830963 C-240.96732415 164.84774983 -240.98122951 159.21726473 -240.99208069 153.58660889 C-241.0161712 142.65692544 -241.06288435 131.72739444 -241.11167145 120.79779816 C-241.17257536 106.87109183 -241.22213967 92.94436505 -241.25366598 79.01756072 C-241.26706151 73.41879479 -241.29095136 67.82019999 -241.3230685 62.22151136 C-241.34115214 58.74365878 -241.35106487 55.26581705 -241.35883522 51.78792763 C-241.36418339 50.17380291 -241.3730069 48.55968546 -241.38553619 46.94560051 C-241.40217664 44.74467632 -241.40651671 42.54405744 -241.40782166 40.34307861 C-241.4135617 39.11089222 -241.41930174 37.87870583 -241.42521572 36.60918045 C-241.19875352 33.64718942 -240.74748066 31.98701589 -239.1875 29.5 C-238.1975 29.5 -237.2075 29.5 -236.1875 29.5 C-235.8575 28.18 -235.5275 26.86 -235.1875 25.5 C-234.5275 25.5 -233.8675 25.5 -233.1875 25.5 C-233.1875 24.84 -233.1875 24.18 -233.1875 23.5 C-228.27239386 21.637032 -223.64282265 20.88714028 -218.453125 20.3828125 C-217.59124573 20.29830841 -216.72936646 20.21380432 -215.84136963 20.1267395 C-204.22496744 19.1046779 -192.58732812 19.28577444 -180.9375 19.375 C-178.61979559 19.38506286 -176.30208689 19.39418279 -173.984375 19.40234375 C-168.38532072 19.42406532 -162.78643142 19.45727412 -157.1875 19.5 C-157.1875 20.49 -157.1875 21.48 -157.1875 22.5 C-156.465625 22.5825 -155.74375 22.665 -155 22.75 C-150.35439566 23.98882782 -147.81157462 26.56388807 -145.1875 30.5 C-145.1875 31.49 -145.1875 32.48 -145.1875 33.5 C-144.5275 33.5 -143.8675 33.5 -143.1875 33.5 C-143.04187036 41.03574849 -142.89991246 48.57156039 -142.76025391 56.10742188 C-142.71255412 58.65952034 -142.664079 61.21160446 -142.61474609 63.76367188 C-142.2948786 80.34455837 -142.1116565 96.91594356 -142.1875 113.5 C-141.74831741 113.08918182 -141.30913483 112.67836365 -140.85664368 112.25509644 C-118.1296214 90.99808738 -118.1296214 90.99808738 -110.6875 84.625 C-108.58581465 82.80755898 -106.93450736 81.1837592 -105.1875 79 C-103.40694534 76.77430668 -101.70823342 75.14561328 -99.5546875 73.3046875 C-95.37037898 69.68281648 -91.33217854 65.92766522 -87.3125 62.125 C-72.59146191 48.26528107 -72.59146191 48.26528107 -65.875 42.75 C-62.34960386 39.79850556 -59.20206713 36.54355477 -56 33.25 C-53.56096806 30.86516877 -51.06195329 28.62471523 -48.5 26.375 C-44.77701537 23.0558458 -41.38127609 19.59775654 -38.0625 15.875 C-34.02972232 11.36332998 -29.94715067 7.23972553 -25.1875 3.5 C-24.57648438 2.99339844 -23.96546875 2.48679688 -23.3359375 1.96484375 C-16.28772218 -3.24155399 -8.04812759 -2.79118577 0 0 Z " fill="#FEFEFE" transform="translate(522.1875,231.5)"/>
<path d="M0 0 C5.49881689 2.47535166 9.50772637 6.36639033 13.8125 10.5 C14.72 11.221875 15.6275 11.94375 16.5625 12.6875 C23.03675033 17.90286832 23.03675033 17.90286832 24.875 21.6875 C25.64117111 23.63237167 25.64117111 23.63237167 27.48046875 24.23828125 C30.90033526 26.08856079 33.34818801 28.74672659 36.0625 31.5 C36.61679687 32.0465625 37.17109375 32.593125 37.7421875 33.15625 C41.8125 37.2466133 41.8125 37.2466133 41.8125 39.5 C42.39515625 39.76554687 42.9778125 40.03109375 43.578125 40.3046875 C49.93952145 43.70781217 55.03116326 49.62458595 59.953125 54.80078125 C61.81558264 56.50281712 63.51060382 57.49673994 65.8125 58.5 C65.8125 59.16 65.8125 59.82 65.8125 60.5 C67.1325 61.16 68.4525 61.82 69.8125 62.5 C69.8125 63.16 69.8125 63.82 69.8125 64.5 C71.1325 65.16 72.4525 65.82 73.8125 66.5 C73.8125 67.49 73.8125 68.48 73.8125 69.5 C74.8025 69.5 75.7925 69.5 76.8125 69.5 C76.8125 70.49 76.8125 71.48 76.8125 72.5 C77.43125 72.5825 78.05 72.665 78.6875 72.75 C81.48188743 73.73625439 81.529452 74.93390399 82.8125 77.5 C83.41884277 77.63728516 84.02518555 77.77457031 84.64990234 77.91601562 C87.37697056 78.65242872 88.46307384 79.82034589 90.4140625 81.84375 C91.39632812 82.84728516 91.39632812 82.84728516 92.3984375 83.87109375 C93.07132813 84.57363281 93.74421875 85.27617187 94.4375 86 C95.78171383 87.38749344 97.1279711 88.773011 98.4765625 90.15625 C99.06904785 90.77306641 99.6615332 91.38988281 100.27197266 92.02539062 C101.76382078 93.5987507 101.76382078 93.5987507 103.8125 94.5 C103.8125 95.16 103.8125 95.82 103.8125 96.5 C104.8025 96.5 105.7925 96.5 106.8125 96.5 C108.34765625 97.99609375 108.34765625 97.99609375 109.875 99.9375 C111.9796333 102.65875193 111.9796333 102.65875193 114.8125 104.5 C114.8125 105.16 114.8125 105.82 114.8125 106.5 C115.8025 106.83 116.7925 107.16 117.8125 107.5 C119.39999782 109.18909768 120.78641918 110.98401943 122.21484375 112.80859375 C123.94371139 114.63891083 125.51447972 115.51229798 127.8125 116.5 C127.8125 117.16 127.8125 117.82 127.8125 118.5 C129.1325 119.16 130.4525 119.82 131.8125 120.5 C131.8125 121.16 131.8125 121.82 131.8125 122.5 C132.8025 122.83 133.7925 123.16 134.8125 123.5 C134.8125 124.16 134.8125 124.82 134.8125 125.5 C136.1325 126.16 137.4525 126.82 138.8125 127.5 C138.8125 128.16 138.8125 128.82 138.8125 129.5 C140.1325 130.16 141.4525 130.82 142.8125 131.5 C142.8125 132.16 142.8125 132.82 142.8125 133.5 C143.52792969 133.726875 144.24335937 133.95375 144.98046875 134.1875 C148.41742671 135.78035224 150.47734167 137.80134973 153.125 140.5 C154.00800781 141.386875 154.89101563 142.27375 155.80078125 143.1875 C157.8125 145.5 157.8125 145.5 157.8125 147.5 C158.8025 147.83 159.7925 148.16 160.8125 148.5 C160.8125 149.16 160.8125 149.82 160.8125 150.5 C161.39 150.78875 161.9675 151.0775 162.5625 151.375 C163.305 151.74625 164.0475 152.1175 164.8125 152.5 C165.451875 152.7475 166.09125 152.995 166.75 153.25 C169.77897368 155.08574162 171.59395724 157.76948584 173.8125 160.5 C174.8025 161.16 175.7925 161.82 176.8125 162.5 C176.8125 163.49 176.8125 164.48 176.8125 165.5 C178.4625 165.83 180.1125 166.16 181.8125 166.5 C181.8125 167.16 181.8125 167.82 181.8125 168.5 C182.34875 168.70625 182.885 168.9125 183.4375 169.125 C187.70539946 171.59588916 191.24122254 174.78616762 192.8125 179.5 C193.8025 179.83 194.7925 180.16 195.8125 180.5 C195.8125 181.49 195.8125 182.48 195.8125 183.5 C196.39257812 183.59925781 196.97265625 183.69851563 197.5703125 183.80078125 C201.76729851 185.10959745 204.66086768 188.54157119 207.8125 191.5 C208.42351563 192.06976563 209.03453125 192.63953125 209.6640625 193.2265625 C211.09472243 194.6029794 212.46032232 196.04640899 213.8125 197.5 C213.8125 198.16 213.8125 198.82 213.8125 199.5 C214.534375 199.54125 215.25625 199.5825 216 199.625 C219.93565538 200.84942612 221.32903682 203.29763958 223.8125 206.5 C224.8025 207.16 225.7925 207.82 226.8125 208.5 C227.286875 209.325 227.76125 210.15 228.25 211 C229.91078889 213.65726223 230.93848653 214.40985696 233.8125 215.5 C233.8125 216.16 233.8125 216.82 233.8125 217.5 C234.55653076 217.75434814 235.30056152 218.00869629 236.06713867 218.27075195 C238.97846852 219.57431316 240.53491238 220.88801443 242.73828125 223.16796875 C243.45306641 223.89693359 244.16785156 224.62589844 244.90429688 225.37695312 C245.63712891 226.13943359 246.36996094 226.90191406 247.125 227.6875 C251.94207094 232.65093414 256.78672918 237.44306549 262.0378418 241.94799805 C265.12149753 244.64476507 267.90453764 247.62495301 270.734375 250.58203125 C272.71743366 252.4122602 274.41294812 253.33763911 276.8125 254.5 C278.01770321 255.93321462 279.21934571 257.37029078 280.375 258.84375 C282.4841724 261.27388341 284.94166709 263.20799607 287.45703125 265.203125 C287.90433594 265.63109375 288.35164062 266.0590625 288.8125 266.5 C288.8125 267.16 288.8125 267.82 288.8125 268.5 C290.1325 269.16 291.4525 269.82 292.8125 270.5 C292.8125 271.16 292.8125 271.82 292.8125 272.5 C294.1325 273.16 295.4525 273.82 296.8125 274.5 C296.8125 275.16 296.8125 275.82 296.8125 276.5 C297.4725 276.5 298.1325 276.5 298.8125 276.5 C301.44713787 282.34560277 303.37381481 287.04487966 302.8125 293.5 C302.1525 293.5 301.4925 293.5 300.8125 293.5 C300.4825 296.14 300.1525 298.78 299.8125 301.5 C298.8225 301.83 297.8325 302.16 296.8125 302.5 C295.60367904 304.50016466 295.60367904 304.50016466 294.8125 306.5 C293.8225 306.5 292.8325 306.5 291.8125 306.5 C291.8125 307.16 291.8125 307.82 291.8125 308.5 C286.67672278 310.19251342 282.09286279 310.78095107 276.67407227 310.72705078 C275.89276443 310.72734283 275.1114566 310.72763489 274.30647278 310.72793579 C271.74716738 310.72655248 269.18816022 310.71103885 266.62890625 310.6953125 C264.84529276 310.69157881 263.0616772 310.68873352 261.27806091 310.68673706 C256.60094464 310.67912863 251.92395408 310.65950429 247.24688721 310.6373291 C242.46734314 310.61681037 237.68777861 310.60772249 232.90820312 310.59765625 C223.54291375 310.57625562 214.17771736 310.54215359 204.8125 310.5 C204.66080353 311.76863892 204.50910706 313.03727783 204.35281372 314.34436035 C203.98704901 317.40325381 203.45309314 320.17592637 202.4296875 323.09375 C202.15350586 323.88789307 201.87732422 324.68203613 201.59277344 325.50024414 C201.2940332 326.32516357 200.99529297 327.15008301 200.6875 328 C200.37329102 328.8758374 200.05908203 329.7516748 199.73535156 330.65405273 C190.93202399 354.84121723 178.25026558 377.04731385 161.890625 396.96484375 C158.92009662 400.58866502 156.04741181 404.28727894 153.16235352 407.97924805 C150.7344518 411.0781214 148.28645421 414.15669088 145.79296875 417.203125 C121.38581272 447.07065263 111.32983184 476.29757746 110.6015625 515.078125 C110.58721664 515.79109741 110.57287079 516.50406982 110.55809021 517.23864746 C110.50078328 520.15856206 110.44537724 523.07824683 110.41113281 525.99853516 C110.38365859 528.17136743 110.3379265 530.34318284 110.2890625 532.515625 C110.26924316 533.78696289 110.24942383 535.05830078 110.22900391 536.36816406 C109.76789929 539.83536803 109.49170327 540.4397731 106.8125 542.5 C104.50440311 543.18443775 104.50440311 543.18443775 101.82032776 543.60566711 C100.34589549 543.83996902 100.34589549 543.83996902 98.84167671 544.07900429 C94.13022772 544.73380261 89.41712573 545.30501302 84.68725586 545.80932617 C83.62979754 545.92529239 82.57233923 546.0412586 81.48283672 546.16073895 C77.99807184 546.54191951 74.51272597 546.9174784 71.02734375 547.29296875 C68.5524036 547.56250747 66.07749996 547.83238154 63.60263062 548.10256958 C57.68775594 548.74733645 51.77248933 549.38841697 45.85699272 550.02744651 C41.10637924 550.54067876 36.35591746 551.05529314 31.6055603 551.57089233 C30.93271065 551.64391844 30.259861 551.71694456 29.56662196 551.79218358 C28.20740949 551.93970377 26.84819715 552.08722516 25.48898494 552.23474777 C14.12226442 553.46825751 2.75511462 554.69775187 -8.61230469 555.92480469 C-18.32589181 556.97334959 -28.03890244 558.02696287 -37.75113392 559.08798885 C-44.06755654 559.77794605 -50.3843907 560.46399087 -56.70174694 561.14534855 C-60.09055879 561.51088817 -63.47915159 561.87818878 -66.86721802 562.25057983 C-70.49809515 562.64837848 -74.12973646 563.03822286 -77.76171875 563.42578125 C-78.76562653 563.53761749 -79.7695343 563.64945374 -80.80386353 563.76467896 C-98.624236 565.63375138 -98.624236 565.63375138 -104.4375 563.0625 C-116.68912137 551.64621645 -120.19751681 542.42108954 -121.07806396 525.90512085 C-121.26488113 522.43952172 -121.48242816 518.97579681 -121.6953125 515.51171875 C-121.73705597 514.82288101 -121.77879944 514.13404327 -121.82180786 513.42433167 C-124.38400963 471.27300325 -137.08600861 442.86707376 -163.9140625 410.296875 C-168.12219063 405.11986513 -172.16462511 399.82110536 -176.1875 394.5 C-176.63915527 393.90670898 -177.09081055 393.31341797 -177.55615234 392.70214844 C-184.42686094 383.65198268 -190.61044509 374.40069961 -196.1875 364.5 C-196.56116699 363.84306152 -196.93483398 363.18612305 -197.31982422 362.50927734 C-201.91176434 354.37302523 -205.94163902 346.10392098 -209.4375 337.4375 C-209.74244385 336.68380127 -210.0473877 335.93010254 -210.36157227 335.15356445 C-212.41623916 329.89510424 -214.13911859 324.55638826 -215.80761719 319.16625977 C-216.03742279 318.42722664 -216.26722839 317.68819351 -216.5039978 316.92676544 C-217.06622264 315.11817201 -217.62700795 313.30913118 -218.1875 311.5 C-219.74272118 311.48786972 -219.74272118 311.48786972 -221.32936096 311.47549438 C-231.11352439 311.39791694 -240.89755074 311.31014846 -250.68153477 311.21247292 C-255.71124592 311.1625859 -260.74093684 311.11625522 -265.77075195 311.078125 C-270.62729834 311.04117624 -275.4836723 310.99479033 -280.34007072 310.94193649 C-282.19032699 310.92344346 -284.04062015 310.90831682 -285.89093208 310.89665604 C-288.48809486 310.87970625 -291.08486712 310.85065061 -293.68188477 310.81884766 C-294.82232742 310.81560738 -294.82232742 310.81560738 -295.98580933 310.81230164 C-300.72971075 310.7383798 -304.6776737 309.98900283 -309.1875 308.5 C-309.1875 307.84 -309.1875 307.18 -309.1875 306.5 C-310.5075 306.17 -311.8275 305.84 -313.1875 305.5 C-313.5175 304.18 -313.8475 302.86 -314.1875 301.5 C-314.8475 301.5 -315.5075 301.5 -316.1875 301.5 C-318.89483176 295.62153064 -319.50644821 288.62457216 -317.51171875 282.38671875 C-316.6875 280.75 -316.6875 280.75 -315.1875 278.5 C-314.5275 278.5 -313.8675 278.5 -313.1875 278.5 C-313.11402344 277.75105469 -313.04054688 277.00210937 -312.96484375 276.23046875 C-311.96590424 272.72163097 -310.68320297 271.94208572 -307.75 269.8125 C-301.03615229 264.62693605 -295.24926932 258.64797473 -289.38305664 252.5324707 C-288.63918701 251.76894287 -287.89531738 251.00541504 -287.12890625 250.21875 C-286.13419312 249.18137695 -286.13419312 249.18137695 -285.11938477 248.12304688 C-283.06715162 246.39889093 -281.75342625 246.05538641 -279.1875 245.5 C-277.90313266 243.5162233 -277.90313266 243.5162233 -277.1875 241.5 C-276.5275 241.5 -275.8675 241.5 -275.1875 241.5 C-275.1875 240.84 -275.1875 240.18 -275.1875 239.5 C-273.83203125 238.203125 -273.83203125 238.203125 -272 236.75 C-269.56823158 234.74880627 -267.49990378 232.79460516 -265.5625 230.3125 C-263.1875 227.5 -263.1875 227.5 -260.984375 226.2421875 C-257.19533022 223.88197245 -254.22387773 220.94392784 -251.0625 217.8125 C-250.44246094 217.22533203 -249.82242188 216.63816406 -249.18359375 216.03320312 C-248.58417969 215.44087891 -247.98476563 214.84855469 -247.3671875 214.23828125 C-246.82819824 213.71274658 -246.28920898 213.18721191 -245.73388672 212.64575195 C-239.95724271 204.63013398 -240.79226281 195.55589099 -240.87866211 186.14160156 C-240.88278685 184.48191092 -240.88555333 182.82221644 -240.8870697 181.16252136 C-240.89314472 177.60102443 -240.90861236 174.03973822 -240.93144035 170.47830963 C-240.96732415 164.84774983 -240.98122951 159.21726473 -240.99208069 153.58660889 C-241.0161712 142.65692544 -241.06288435 131.72739444 -241.11167145 120.79779816 C-241.17257536 106.87109183 -241.22213967 92.94436505 -241.25366598 79.01756072 C-241.26706151 73.41879479 -241.29095136 67.82019999 -241.3230685 62.22151136 C-241.34115214 58.74365878 -241.35106487 55.26581705 -241.35883522 51.78792763 C-241.36418339 50.17380291 -241.3730069 48.55968546 -241.38553619 46.94560051 C-241.40217664 44.74467632 -241.40651671 42.54405744 -241.40782166 40.34307861 C-241.4135617 39.11089222 -241.41930174 37.87870583 -241.42521572 36.60918045 C-241.19875352 33.64718942 -240.74748066 31.98701589 -239.1875 29.5 C-238.1975 29.5 -237.2075 29.5 -236.1875 29.5 C-235.8575 28.18 -235.5275 26.86 -235.1875 25.5 C-234.5275 25.5 -233.8675 25.5 -233.1875 25.5 C-233.1875 24.84 -233.1875 24.18 -233.1875 23.5 C-228.27239386 21.637032 -223.64282265 20.88714028 -218.453125 20.3828125 C-217.59124573 20.29830841 -216.72936646 20.21380432 -215.84136963 20.1267395 C-204.22496744 19.1046779 -192.58732812 19.28577444 -180.9375 19.375 C-178.61979559 19.38506286 -176.30208689 19.39418279 -173.984375 19.40234375 C-168.38532072 19.42406532 -162.78643142 19.45727412 -157.1875 19.5 C-157.1875 20.49 -157.1875 21.48 -157.1875 22.5 C-156.465625 22.5825 -155.74375 22.665 -155 22.75 C-150.35439566 23.98882782 -147.81157462 26.56388807 -145.1875 30.5 C-145.1875 31.49 -145.1875 32.48 -145.1875 33.5 C-144.5275 33.5 -143.8675 33.5 -143.1875 33.5 C-143.04187036 41.03574849 -142.89991246 48.57156039 -142.76025391 56.10742188 C-142.71255412 58.65952034 -142.664079 61.21160446 -142.61474609 63.76367188 C-142.2948786 80.34455837 -142.1116565 96.91594356 -142.1875 113.5 C-141.74831741 113.08918182 -141.30913483 112.67836365 -140.85664368 112.25509644 C-118.1296214 90.99808738 -118.1296214 90.99808738 -110.6875 84.625 C-108.58581465 82.80755898 -106.93450736 81.1837592 -105.1875 79 C-103.40694534 76.77430668 -101.70823342 75.14561328 -99.5546875 73.3046875 C-95.37037898 69.68281648 -91.33217854 65.92766522 -87.3125 62.125 C-72.59146191 48.26528107 -72.59146191 48.26528107 -65.875 42.75 C-62.34960386 39.79850556 -59.20206713 36.54355477 -56 33.25 C-53.56096806 30.86516877 -51.06195329 28.62471523 -48.5 26.375 C-44.77701537 23.0558458 -41.38127609 19.59775654 -38.0625 15.875 C-34.02972232 11.36332998 -29.94715067 7.23972553 -25.1875 3.5 C-24.57648438 2.99339844 -23.96546875 2.48679688 -23.3359375 1.96484375 C-16.28772218 -3.24155399 -8.04812759 -2.79118577 0 0 Z M-18.1875 84.5 C-18.1875 85.16 -18.1875 85.82 -18.1875 86.5 C-19.46625 86.62375 -20.745 86.7475 -22.0625 86.875 C-25.53540936 87.19042399 -25.53540936 87.19042399 -28.1875 89.5 C-30.3125 90.125 -30.3125 90.125 -32.1875 90.5 C-32.249375 91.11875 -32.31125 91.7375 -32.375 92.375 C-32.643125 93.07625 -32.91125 93.7775 -33.1875 94.5 C-34.27611328 94.91185547 -34.27611328 94.91185547 -35.38671875 95.33203125 C-38.85943071 96.78020542 -41.04629128 98.77109337 -43.8125 101.3125 C-45.22402344 102.59060547 -45.22402344 102.59060547 -46.6640625 103.89453125 C-49.21114016 106.32081506 -49.21114016 106.32081506 -50.63671875 108.95703125 C-52.71917687 112.37184293 -55.40820282 114.72677083 -58.375 117.375 C-58.95652832 117.90311279 -59.53805664 118.43122559 -60.13720703 118.9753418 C-63.84899871 122.3359623 -67.61427104 125.63256528 -71.40625 128.90234375 C-73.96499189 131.19735567 -76.35721072 133.6434674 -78.7421875 136.1171875 C-80.1875 137.5 -80.1875 137.5 -82.1875 138.5 C-82.1875 139.16 -82.1875 139.82 -82.1875 140.5 C-82.74953125 140.7475 -83.3115625 140.995 -83.890625 141.25 C-86.57842569 142.71274867 -88.65155482 144.46804873 -90.9375 146.5 C-91.73671875 147.20125 -92.5359375 147.9025 -93.359375 148.625 C-95.42020005 150.30221428 -95.42020005 150.30221428 -95.1875 152.5 C-96.6725 152.995 -96.6725 152.995 -98.1875 153.5 C-99.37044599 154.6301359 -100.5466195 155.76859265 -101.6796875 156.94873047 C-104.73998624 160.09723082 -107.98601435 163.05889216 -111.1875 166.0625 C-111.88617188 166.72185547 -112.58484375 167.38121094 -113.3046875 168.06054688 C-116.1989095 170.777293 -119.05476019 173.39646987 -122.1875 175.83984375 C-122.8475 176.38769531 -123.5075 176.93554688 -124.1875 177.5 C-124.1875 178.16 -124.1875 178.82 -124.1875 179.5 C-124.765 179.75910156 -125.3425 180.01820313 -125.9375 180.28515625 C-128.36043811 181.59337457 -130.15178504 183.08865731 -132.1875 184.9375 C-134.20323845 186.76032598 -136.14890547 188.47291491 -138.375 190.03515625 C-140.47458667 191.4628121 -140.47458667 191.4628121 -141.1875 194.5 C-142.7109375 196 -142.7109375 196 -144.5625 197.5 C-146.89776792 199.40796357 -149.0616666 201.36309455 -151.1875 203.5 C-152.38913249 204.54938946 -153.59805126 205.5904696 -154.8125 206.625 C-160.48435525 211.55523145 -165.68686406 216.94253143 -170.9375 222.3125 C-174.12975816 225.41608432 -177.48609825 228.03239883 -181.1875 230.5 C-181.5175 231.180625 -181.8475 231.86125 -182.1875 232.5625 C-183.1875 234.5 -183.1875 234.5 -186.1875 235.5 C-186.5175 237.48 -186.8475 239.46 -187.1875 241.5 C-188.1775 241.83 -189.1675 242.16 -190.1875 242.5 C-190.2378566 247.04913819 -190.27365885 251.59810566 -190.29736328 256.14746094 C-190.3072703 257.68720331 -190.32079969 259.22692767 -190.33837891 260.76660156 C-190.51080665 276.28509811 -189.29122586 290.68544684 -184.4375 305.5625 C-184.07970459 306.68519287 -183.72190918 307.80788574 -183.35327148 308.96459961 C-177.43057522 327.29965642 -169.81298787 344.37480101 -158.71875 360.1796875 C-157.1875 362.5 -157.1875 362.5 -156.1875 365.5 C-154.54541361 367.19088966 -152.8742947 368.85370744 -151.1875 370.5 C-149.41562948 372.5483897 -147.66685529 374.60423594 -145.9375 376.6875 C-141.74068563 381.70893149 -137.42939366 386.59142325 -132.96484375 391.37890625 C-131.2993641 393.36650065 -130.32179921 395.19228781 -129.1875 397.5 C-128.383125 398.139375 -127.57875 398.77875 -126.75 399.4375 C-124.01216146 401.64112614 -122.93957499 403.48643102 -121.1875 406.5 C-120.32125 407.44875 -119.455 408.3975 -118.5625 409.375 C-95.83803781 435.36998032 -88.8167072 471.33923451 -87.625 504.6875 C-87.58181641 505.83025391 -87.53863281 506.97300781 -87.49414062 508.15039062 C-87.38933704 510.93350811 -87.28716701 513.71669465 -87.1875 516.5 C-34.32088041 527.88044788 22.87848558 524.74912865 75.8125 515.5 C75.82651855 514.31748657 75.82651855 514.31748657 75.84082031 513.11108398 C76.09488015 495.94585517 76.90120943 479.29297323 80.8125 462.5 C81.0094043 461.64792969 81.20630859 460.79585937 81.40917969 459.91796875 C85.90954525 441.28688459 95.04868072 420.26381928 108.8125 406.5 C109.63501279 405.3822997 110.44588589 404.25600917 111.25 403.125 C113.98830996 399.43162096 116.99381144 396.04739208 120.125 392.6875 C124.49068154 387.99673809 128.63501041 383.18662418 132.64453125 378.18359375 C134.05028608 376.44349722 135.48394783 374.72544135 136.94921875 373.03515625 C158.52117459 347.90014846 172.5927974 315.27544866 176.8125 282.5 C176.94140625 281.57574219 177.0703125 280.65148437 177.203125 279.69921875 C178.25620155 271.0113372 178.4367213 262.11095101 176.8125 253.5 C176.1525 253.5 175.4925 253.5 174.8125 253.5 C174.668125 252.46875 174.52375 251.4375 174.375 250.375 C173.89589543 247.07450187 173.37374917 243.78731659 172.8125 240.5 C172.1525 240.5 171.4925 240.5 170.8125 240.5 C170.4825 239.51 170.1525 238.52 169.8125 237.5 C168.8225 237.5 167.8325 237.5 166.8125 237.5 C166.8125 236.79875 166.8125 236.0975 166.8125 235.375 C165.45268945 231.46554468 163.14580824 230.23075186 159.81640625 227.92578125 C157.57045039 226.32778146 155.7568185 224.4443185 153.8125 222.5 C153.1525 222.5 152.4925 222.5 151.8125 222.5 C151.709375 221.860625 151.60625 221.22125 151.5 220.5625 C151.273125 219.881875 151.04625 219.20125 150.8125 218.5 C149.8225 218.17 148.8325 217.84 147.8125 217.5 C147.1525 216.51 146.4925 215.52 145.8125 214.5 C145.1525 214.5 144.4925 214.5 143.8125 214.5 C143.4825 213.51 143.1525 212.52 142.8125 211.5 C141.06416421 209.87748276 141.06416421 209.87748276 138.875 208.3125 C138.06160156 207.69632812 137.24820312 207.08015625 136.41015625 206.4453125 C135.12431641 205.48238281 135.12431641 205.48238281 133.8125 204.5 C127.48189839 199.73970363 122.00334652 194.80230925 116.8203125 188.796875 C113.95169787 185.51489352 113.95169787 185.51489352 110.8125 182.5 C109.8225 182.5 108.8325 182.5 107.8125 182.5 C107.54840332 181.90541992 107.28430664 181.31083984 107.01220703 180.69824219 C105.76492108 178.4128204 104.53604403 177.06976403 102.6171875 175.328125 C101.98723877 174.74957764 101.35729004 174.17103027 100.70825195 173.57495117 C100.04140381 172.97271729 99.37455566 172.3704834 98.6875 171.75 C97.32301652 170.5026159 95.95972547 169.25392613 94.59765625 168.00390625 C93.94297363 167.40336426 93.28829102 166.80282227 92.61376953 166.18408203 C89.76556817 163.52117976 87.07656076 160.71343563 84.42578125 157.85546875 C82.57494728 156.3004097 81.14037982 156.01458396 78.8125 155.5 C77.8125 153.75 77.8125 153.75 76.8125 151.5 C74.01011239 147.40420273 70.71221782 144.76851361 66.71484375 141.9296875 C64.89910724 140.56508881 63.39677685 139.1217992 61.8125 137.5 C60.59026767 136.42953044 59.36053303 135.36759008 58.125 134.3125 C53.08495509 129.93146648 48.44733767 125.18531348 43.7734375 120.421875 C42.13310481 118.81421826 40.48398353 117.36245945 38.6875 115.9375 C35.8125 113.5 35.8125 113.5 33.8125 110.5 C33.1525 110.5 32.4925 110.5 31.8125 110.5 C31.4825 109.51 31.1525 108.52 30.8125 107.5 C29.83601983 106.47702078 28.83118662 105.48095748 27.8125 104.5 C27.173125 103.63375 26.53375 102.7675 25.875 101.875 C23.5832143 99.23597404 23.0072545 99.27448594 19.8125 98.5 C17.46881436 96.32780355 15.31925088 94.06522214 13.1875 91.6875 C11.73688937 90.17319006 11.73688937 90.17319006 8.8125 90.5 C8.4825 89.51 8.1525 88.52 7.8125 87.5 C4.5125 87.17 1.2125 86.84 -2.1875 86.5 C-2.1875 85.84 -2.1875 85.18 -2.1875 84.5 C-7.4675 84.5 -12.7475 84.5 -18.1875 84.5 Z " fill="#374858" transform="translate(522.1875,231.5)"/>
<path d="M0 0 C0 0.66 0 1.32 0 2 C0.9075 1.938125 1.815 1.87625 2.75 1.8125 C6.29238832 2.01686856 7.52653696 2.52653696 10 5 C10 5.66 10 6.32 10 7 C15.25034633 9.89325763 15.25034633 9.89325763 21 11 C21 10.34 21 9.68 21 9 C25.97323406 3.63924121 31.46819503 -0.68354985 38.96484375 -1.20703125 C43.46149287 -1.26698657 47.6620624 -1.28378105 52 0 C52 0.66 52 1.32 52 2 C52.71800781 2.103125 53.43601562 2.20625 54.17578125 2.3125 C57.31377948 3.07638339 59.4610478 4.28410875 62.1875 6 C65.53293588 8.10889403 65.53293588 8.10889403 69 10 C69.60328125 9.59007812 70.2065625 9.18015625 70.828125 8.7578125 C71.62734375 8.21898437 72.4265625 7.68015625 73.25 7.125 C74.43335938 6.32449219 74.43335938 6.32449219 75.640625 5.5078125 C79.66557239 2.93557791 82.16017422 1.73112079 87 2 C87 1.34 87 0.68 87 0 C93.16791435 -3.08395718 100.34004487 -0.37311421 106.47558594 1.65209961 C112.25907137 3.77820929 116.49437102 6.92635805 120 12 C120 12.66 120 13.32 120 14 C120.66 14 121.32 14 122 14 C122 14.66 122 15.32 122 16 C122.66 16 123.32 16 124 16 C128.49756471 22.18415148 129.31870318 28.84737848 129.1875 36.25 C129.1865332 37.30960938 129.1865332 37.30960938 129.18554688 38.390625 C129.15887779 41.51979709 128.99604825 44.01185525 128 47 C127.34 47 126.68 47 126 47 C126.00902344 47.60585938 126.01804687 48.21171875 126.02734375 48.8359375 C125.72209591 57.46250678 121.90153125 63.11994506 115.87109375 69.1171875 C113.84979702 70.99673975 113.84979702 70.99673975 112.375 73.75 C111.92125 74.4925 111.4675 75.235 111 76 C110.34 76 109.68 76 109 76 C109 76.66 109 77.32 109 78 C108.34 78 107.68 78 107 78 C106.67 78.99 106.34 79.98 106 81 C101.65714286 85 101.65714286 85 98 85 C97.67 85.99 97.34 86.98 97 88 C92.9033589 90.12710211 89.63766855 91.42160623 85 91 C85 91.66 85 92.32 85 93 C83.68 93 82.36 93 81 93 C81 93.66 81 94.32 81 95 C75.77487721 96.46670113 71.4185766 97.22577402 66 97 C66 97.66 66 98.32 66 99 C63.03 99 60.06 99 57 99 C56.67 137.61 56.34 176.22 56 216 C58.31 216 60.62 216 63 216 C63 216.33 63 216.66 63 217 C52.11 217 41.22 217 30 217 C29.67 178.39 29.34 139.78 29 100 C24.71 99.67 20.42 99.34 16 99 C14.68 98.67 13.36 98.34 12 98 C12 97.34 12 96.68 12 96 C11.12988281 95.92652344 11.12988281 95.92652344 10.2421875 95.8515625 C5.56076908 95.40350595 1.42514541 94.701979 -3 93 C-3 92.34 -3 91.68 -3 91 C-3.7734375 90.814375 -3.7734375 90.814375 -4.5625 90.625 C-5.366875 90.41875 -6.17125 90.2125 -7 90 C-8.155 89.773125 -9.31 89.54625 -10.5 89.3125 C-14.84021003 87.68492124 -15.57276657 85.83659477 -18 82 C-19.99180409 80.98377342 -21.99152635 79.98287008 -24 79 C-25.625 76.625 -25.625 76.625 -27 74 C-29.52975984 70.44768577 -29.52975984 70.44768577 -33 68 C-33.8515625 65.71484375 -33.8515625 65.71484375 -34.625 62.9375 C-35.01558594 61.55884766 -35.01558594 61.55884766 -35.4140625 60.15234375 C-35.60742188 59.44207031 -35.80078125 58.73179687 -36 58 C-36.66 58 -37.32 58 -38 58 C-39.75747614 53.49646738 -40.19294408 49.82360189 -40 45 C-40.66 45 -41.32 45 -42 45 C-42 39.06 -42 33.12 -42 27 C-41.34 27 -40.68 27 -40 27 C-39.87625 25.96875 -39.7525 24.9375 -39.625 23.875 C-39.06110186 20.37883154 -38.21317941 17.31602373 -37 14 C-36.34 14 -35.68 14 -35 14 C-34.59394531 13.10087891 -34.59394531 13.10087891 -34.1796875 12.18359375 C-27.86196206 0.4895258 -12.00924985 -3.09916125 0 0 Z " fill="#E6A224" transform="translate(477,537)"/>
<path d="M0 0 C7.14143196 -0.31661521 12.50393867 -0.30931426 19 3 C21.97866747 4.06655513 24.98656773 5.03652166 28 6 C28 6.66 28 7.32 28 8 C28.763125 8.144375 29.52625 8.28875 30.3125 8.4375 C33 9 33 9 36 10 C36 10.66 36 11.32 36 12 C36.94875 12.144375 37.8975 12.28875 38.875 12.4375 C42 13 42 13 44 14 C44 14.66 44 15.32 44 16 C44.58934326 16.12979248 45.17868652 16.25958496 45.78588867 16.39331055 C49.21457026 17.33280484 52.20927973 19.11787724 55.3125 20.8125 C56.2705957 21.32780273 56.2705957 21.32780273 57.24804688 21.85351562 C61.53731443 24.16980702 65.77539584 26.56798337 70 29 C70 29.66 70 30.32 70 31 C70.57363281 31.11472656 71.14726563 31.22945312 71.73828125 31.34765625 C74.20678385 32.05964232 76.01976098 33.06690328 78.1875 34.4375 C79.22970703 35.08525391 79.22970703 35.08525391 80.29296875 35.74609375 C82 37 82 37 83 39 C84.0828125 39.433125 84.0828125 39.433125 85.1875 39.875 C88.48592366 41.19436947 91.15387082 42.88195038 94 45 C94 45.66 94 46.32 94 47 C95.485 47.495 95.485 47.495 97 48 C97.33 48.66 97.66 49.32 98 50 C99.051875 50.61875 99.051875 50.61875 100.125 51.25 C103.13195142 53.08031825 105.60486365 55.14170204 108.23828125 57.4609375 C109.8346296 58.85553007 111.46770118 60.17927344 113.125 61.5 C116.12681292 64.11027211 118.45708506 66.94850207 121 70 C122.45323503 71.2004985 123.90699677 72.40059742 125.37890625 73.578125 C129.34340917 77.05542395 133.31987366 80.95962098 135 86 C136.57033897 87.48182994 136.57033897 87.48182994 138.4375 88.875 C141.41355166 91.31438661 142.9895372 93.18269609 144 97 C144.66 97 145.32 97 146 97 C146 97.99 146 98.98 146 100 C147.32 100.66 148.64 101.32 150 102 C150 102.99 150 103.98 150 105 C151.14916987 106.14916987 152.30403464 107.29326178 153.48828125 108.40625 C157.034028 112.14440161 161 116.74202033 161 122 C161.66 122 162.32 122 163 122 C163.84069415 123.60032137 164.67231505 125.20541171 165.5 126.8125 C165.9640625 127.70582031 166.428125 128.59914062 166.90625 129.51953125 C168 132 168 132 168 135 C168.66 135 169.32 135 170 135 C170.33 136.65 170.66 138.3 171 140 C171.66 140 172.32 140 173 140 C175.74066616 145.68359551 178.05887721 150.72584808 179 157 C179.45117188 157.38929688 179.90234375 157.77859375 180.3671875 158.1796875 C182.81414451 160.90763479 183.51026833 164.17301871 184.5 167.625 C184.93019231 169.07055001 185.36117724 170.51586437 185.79296875 171.9609375 C186.10113525 173.00459473 186.10113525 173.00459473 186.41552734 174.06933594 C187.14751925 176.48729418 187.97197832 178.86785798 188.8125 181.25 C190 185 190 185 190 189 C190.66 189 191.32 189 192 189 C192.03738281 189.68964844 192.07476563 190.37929688 192.11328125 191.08984375 C192.51284102 196.80119806 193.38311971 201.68609311 195.3671875 207.05078125 C196.13812534 209.42546014 196.23987878 211.52125263 196 214 C195.34 214 194.68 214 194 214 C194.33 214.66 194.66 215.32 195 216 C195.66 216 196.32 216 197 216 C198.51997246 225.49982789 199.47925051 235.86696742 196 245 C194.68 245.33 193.36 245.66 192 246 C192 246.99 192 247.98 192 249 C189.67099331 252.26383291 186.84930291 252.80282046 183.0625 253.6875 C181.50208984 254.06455078 181.50208984 254.06455078 179.91015625 254.44921875 C173.83931451 255.59819685 168.54164794 254.58836542 163 252 C160.24705165 249.61735975 157.96674576 247.0673419 156 244 C156 243.34 156 242.68 156 242 C155.34 242 154.68 242 154 242 C152.60993302 236.90308776 151.68865775 232.05076465 151.24609375 226.78515625 C151.18018389 224.97887832 151.18018389 224.97887832 150 224 C149.59602148 221.80023376 149.2521647 219.58930717 148.9375 217.375 C148.67259766 215.56128906 148.67259766 215.56128906 148.40234375 213.7109375 C148.01153384 210.10638011 147.93016254 206.62223645 148 203 C147.34 203 146.68 203 146 203 C145.89042969 202.45472656 145.78085937 201.90945313 145.66796875 201.34765625 C144.63364468 196.42831007 143.32213749 191.76165091 141.5859375 187.04296875 C141 185 141 185 141 181 C140.34 181 139.68 181 139 181 C138.75765625 180.38253906 138.5153125 179.76507813 138.265625 179.12890625 C133.40442131 166.84501846 127.97962082 155.22875262 121 144 C120.64180176 143.42314453 120.28360352 142.84628906 119.91455078 142.25195312 C118.74203196 140.37158217 117.56008711 138.49747172 116.375 136.625 C116.00286377 136.02993652 115.63072754 135.43487305 115.24731445 134.82177734 C113.11388006 131.48203534 110.85993057 128.73132556 108 126 C106.96986723 124.35178756 105.96885372 122.68496298 105 121 C104.443125 120.278125 103.88625 119.55625 103.3125 118.8125 C102 117 102 117 102 115 C100.02 114.01 100.02 114.01 98 113 C98 112.34 98 111.68 98 111 C97.443125 110.773125 96.88625 110.54625 96.3125 110.3125 C92.68200197 108.25194706 89.77399565 105.59352047 87.9375 101.8125 C86.72658139 99.47139069 85.39822186 98.95928874 83 98 C83 97.34 83 96.68 83 96 C81.02 95.01 81.02 95.01 79 94 C79 93.34 79 92.68 79 92 C78.26394531 91.73703125 77.52789063 91.4740625 76.76953125 91.203125 C73.98765049 89.99463519 72.03379218 88.65448579 69.6875 86.75 C68.91019531 86.12996094 68.13289062 85.50992188 67.33203125 84.87109375 C66.56246094 84.25363281 65.79289063 83.63617188 65 83 C63.63108801 81.92966771 62.2564048 80.86665939 60.875 79.8125 C60.29492188 79.36519531 59.71484375 78.91789062 59.1171875 78.45703125 C56.7795273 76.84827247 54.34078304 75.471826 51.86865234 74.08178711 C48.17086948 71.94109259 44.63301415 69.5419248 41.07421875 67.1796875 C37.80359551 65.04259152 34.6690479 63.33419924 31 62 C28.99248185 61.01517978 26.99065541 60.01847486 25 59 C25 58.34 25 57.68 25 57 C22.03 56.505 22.03 56.505 19 56 C19 55.34 19 54.68 19 54 C18.195625 53.855625 17.39125 53.71125 16.5625 53.5625 C14 53 14 53 13 52 C12.34 52 11.68 52 11 52 C11 51.34 11 50.68 11 50 C10.236875 49.855625 9.47375 49.71125 8.6875 49.5625 C6 49 6 49 3 48 C3 47.34 3 46.68 3 46 C2.236875 45.855625 1.47375 45.71125 0.6875 45.5625 C-2 45 -2 45 -5 44 C-5.33 43.34 -5.66 42.68 -6 42 C-6.804375 41.54625 -7.60875 41.0925 -8.4375 40.625 C-11.20651211 38.8690411 -11.69600123 37.88742586 -13 35 C-13.99 34.34 -14.98 33.68 -16 33 C-17.37548367 29.52930283 -17.20238579 25.81510114 -17.25 22.125 C-17.27578125 20.93132812 -17.3015625 19.73765625 -17.328125 18.5078125 C-16.72746348 12.08645477 -13.74264257 8.17804227 -9 4 C-4.75969582 0.8973384 -4.75969582 0.8973384 -1.6875 1.3125 C-1.130625 1.539375 -0.57375 1.76625 0 2 C0 1.34 0 0.68 0 0 Z " fill="#374858" transform="translate(706,122)"/>
<path d="M0 0 C1.69842041 -0.03915527 1.69842041 -0.03915527 3.43115234 -0.07910156 C7.15469895 0.50725493 8.78818587 1.72515041 11.4140625 4.390625 C13.03599159 9.61684096 12.67213504 12.51909212 10.3515625 17.453125 C4.52444488 27.84959442 -3.4997699 34.32310299 -15.0234375 37.80078125 C-22.07124565 39.42306636 -29.34256758 40.56762464 -36.5859375 40.390625 C-36.84246094 41.10734375 -37.09898437 41.8240625 -37.36328125 42.5625 C-43.56858838 56.91598998 -56.00822821 66.62941445 -69.5859375 73.390625 C-68.56798096 73.40520752 -67.55002441 73.41979004 -66.5012207 73.43481445 C-38.06306854 73.87083061 -9.44142672 74.59863358 18.7265625 78.890625 C19.77324097 79.04990479 19.77324097 79.04990479 20.84106445 79.21240234 C25.66978545 80.04651504 29.97795633 81.33947013 34.4140625 83.390625 C35.13793945 85.49414062 35.13793945 85.49414062 35.4140625 87.390625 C31.26641763 90.24789147 27.09265707 91.43815577 22.23046875 92.47265625 C21.04536461 92.72907646 21.04536461 92.72907646 19.83631897 92.99067688 C12.14014253 94.57647163 4.45189278 95.37142809 -3.37866211 95.91918945 C-5.62543189 96.07651409 -7.87012251 96.25233583 -10.11523438 96.43164062 C-34.98504165 98.35862627 -59.86150156 98.57881443 -84.79101562 98.57592773 C-88.37928367 98.57584704 -91.9674225 98.58271708 -95.55566406 98.59643555 C-114.99918492 98.66949951 -134.38784714 98.48250074 -153.80859375 97.47265625 C-154.60672611 97.43157431 -155.40485847 97.39049236 -156.22717667 97.34816551 C-202.31687627 94.9167214 -202.31687627 94.9167214 -214.5859375 88.390625 C-214.9159375 87.400625 -215.2459375 86.410625 -215.5859375 85.390625 C-209.6418368 78.42427496 -197.06822783 78.6417301 -188.5859375 77.765625 C-187.48765625 77.64445313 -186.389375 77.52328125 -185.2578125 77.3984375 C-182.03500109 77.04713578 -178.81220142 76.7087907 -175.5859375 76.390625 C-174.79603928 76.31008377 -174.00614105 76.22954254 -173.19230652 76.14656067 C-166.03213465 75.44890663 -158.88774466 75.10215674 -151.69921875 74.85546875 C-150.51619675 74.81249161 -149.33317474 74.76951447 -148.11430359 74.72523499 C-144.37577603 74.59005943 -140.63711701 74.45902338 -136.8984375 74.328125 C-134.34699534 74.23660289 -131.79556292 74.14480865 -129.24414062 74.05273438 C-123.02484876 73.82888598 -116.80544393 73.60842611 -110.5859375 73.390625 C-111.34374512 72.91069092 -112.10155273 72.43075684 -112.88232422 71.9362793 C-113.87506348 71.30633057 -114.86780273 70.67638184 -115.890625 70.02734375 C-116.87530762 69.40303467 -117.85999023 68.77872559 -118.87451172 68.13549805 C-123.33212322 65.26690905 -126.57787387 63.06692991 -129.3125 58.51953125 C-132.85414545 52.48301436 -132.85414545 52.48301436 -138.49462891 48.67871094 C-141.48359625 48.03846487 -144.46860347 47.71293878 -147.50561523 47.38989258 C-163.14779268 45.62117148 -175.58578288 36.02449541 -185.44140625 24.15625 C-186.5859375 22.390625 -186.5859375 22.390625 -186.5859375 20.390625 C-180.4692328 18.70622743 -174.51436068 17.79956439 -168.20922852 17.15722656 C-166.69006301 16.9955279 -166.69006301 16.9955279 -165.14020729 16.83056259 C-161.79063059 16.47539929 -158.44026786 16.1283205 -155.08984375 15.78125 C-152.72067558 15.53158949 -150.35156135 15.28141657 -147.98249817 15.03076172 C-141.67184942 14.36450846 -135.36049401 13.70520166 -129.04894257 13.04756165 C-122.56108332 12.37068836 -116.07377767 11.68855168 -109.58642578 11.00683594 C-101.91569589 10.20107303 -94.24490413 9.39592296 -86.5737915 8.59381104 C-73.7369356 7.25106812 -60.90166306 5.89636327 -48.07086754 4.4968338 C-44.71532914 4.13116064 -41.35947144 3.7684516 -38.00366211 3.40527344 C-34.5447664 3.03092154 -31.08618529 2.65456755 -27.62844849 2.26965332 C-9.10632466 0.20984723 -9.10632466 0.20984723 0 0 Z " fill="#374858" transform="translate(605.5859375,841.609375)"/>
<path d="M0 0 C0 0.66 0 1.32 0 2 C0.763125 2.144375 1.52625 2.28875 2.3125 2.4375 C5 3 5 3 8 4 C8.495 4.99 8.495 4.99 9 6 C10.66196835 6.6782945 12.32964834 7.3426207 14 8 C15.89771334 9.15085417 17.77247177 10.34023964 19.625 11.5625 C22.47063329 13.43749947 24.76282389 14.9209413 28 16 C28 16.66 28 17.32 28 18 C28.721875 18.268125 29.44375 18.53625 30.1875 18.8125 C32.99766383 19.99901362 35.48416557 21.27485639 38 23 C38 23.66 38 24.32 38 25 C39.65 25.66 41.3 26.32 43 27 C43 27.66 43 28.32 43 29 C43.78375 29.2475 44.5675 29.495 45.375 29.75 C48.40937999 31.19494285 48.67029725 32.05565819 50 35 C51.485 35.495 51.485 35.495 53 36 C53 36.66 53 37.32 53 38 C54.32 38.66 55.64 39.32 57 40 C57 40.66 57 41.32 57 42 C57.61875 42.0825 58.2375 42.165 58.875 42.25 C61.69640174 43.24578885 61.71927958 44.36322266 63 47 C64.65893182 48.34294481 66.32476605 49.67744688 68 51 C68 51.66 68 52.32 68 53 C68.61875 53.28875 69.2375 53.5775 69.875 53.875 C72 55 72 55 74 57 C74 57.99 74 58.98 74 60 C75.32 60.66 76.64 61.32 78 62 C78 62.99 78 63.98 78 65 C78.66 65 79.32 65 80 65 C81.25390625 66.42578125 81.25390625 66.42578125 82.5625 68.3125 C83.21412109 69.23482422 83.21412109 69.23482422 83.87890625 70.17578125 C85 72 85 72 86 75 C86.66 75.33 87.32 75.66 88 76 C88.67441131 77.6635479 89.3400321 79.33066942 90 81 C90.45375 81.598125 90.9075 82.19625 91.375 82.8125 C96.14972025 89.24000802 101 98.96328899 101 107 C101.66 107 102.32 107 103 107 C103.12117187 107.59167969 103.24234375 108.18335938 103.3671875 108.79296875 C103.53476562 109.58316406 103.70234375 110.37335938 103.875 111.1875 C104.11863281 112.35345703 104.11863281 112.35345703 104.3671875 113.54296875 C104.93950921 116.01854211 104.93950921 116.01854211 105.98852539 118.32446289 C107.01265039 121.03346261 107.46528593 123.39740602 107.81640625 126.265625 C107.94080078 127.23757813 108.06519531 128.20953125 108.19335938 129.2109375 C108.31517578 130.21382812 108.43699219 131.21671875 108.5625 132.25 C108.81003605 134.25567672 109.06114015 136.26091744 109.31640625 138.265625 C109.42412354 139.15024414 109.53184082 140.03486328 109.64282227 140.94628906 C109.79472134 142.98655111 109.79472134 142.98655111 111 144 C111.62549567 150.88045234 109.85534831 155.77941976 107 162 C106.34 162 105.68 162 105 162 C104.67 163.32 104.34 164.64 104 166 C102.68 166.33 101.36 166.66 100 167 C100 167.66 100 168.32 100 169 C95.74808023 171.06054573 92.19694786 171.26878779 87.5 171.25 C85.56640625 171.25773437 85.56640625 171.25773437 83.59375 171.265625 C80.2476379 171.01830367 77.99310947 170.4505069 75 169 C75 168.34 75 167.68 75 167 C73.02 166.01 73.02 166.01 71 165 C71 164.34 71 163.68 71 163 C70.01 162.67 69.02 162.34 68 162 C64.49069285 156.75759522 64.12230085 151.11053064 63.4375 145 C62.44113715 136.34344771 62.44113715 136.34344771 60 128 C59.57909922 126.50118258 59.16230287 125.00120533 58.75 123.5 C56.59381194 116.26136867 53.90281667 107.83010533 49.3125 101.7734375 C48 100 48 100 48 97 C46.515 96.505 46.515 96.505 45 96 C43.26323806 93.4990628 42.06588898 91.18888174 41.0625 88.3125 C40.18707202 85.84462837 40.18707202 85.84462837 37.875 84.6875 C37.25625 84.460625 36.6375 84.23375 36 84 C36 83.01 36 82.02 36 81 C35.34 81 34.68 81 34 81 C32.5625 79.50390625 32.5625 79.50390625 31 77.5625 C28.85474956 74.84811762 28.85474956 74.84811762 26 73 C26 72.34 26 71.68 26 71 C25.360625 70.896875 24.72125 70.79375 24.0625 70.6875 C23.381875 70.460625 22.70125 70.23375 22 70 C21.67 69.01 21.34 68.02 21 67 C19.35008418 66.29289322 17.6792238 65.63437344 16 65 C12.6875 63 12.6875 63 10 61 C10 60.34 10 59.68 10 59 C9.46503906 58.9071875 8.93007813 58.814375 8.37890625 58.71875 C5.24160551 57.77086275 2.73931524 56.19428233 -0.0625 54.5 C-4.36864736 51.89857559 -4.36864736 51.89857559 -9 50 C-9.33 49.34 -9.66 48.68 -10 48 C-11.84346091 46.98231653 -13.72584289 46.03452189 -15.625 45.125 C-20.1940611 42.90044519 -24.62630605 40.58445552 -29 38 C-29 37.34 -29 36.68 -29 36 C-29.66 36 -30.32 36 -31 36 C-34.47730468 30.16710182 -36.14372844 26.32020072 -36.125 19.4375 C-36.12757813 18.48746094 -36.13015625 17.53742188 -36.1328125 16.55859375 C-36 14 -36 14 -35 11 C-34.34 11 -33.68 11 -33 11 C-32.9175 10.2575 -32.835 9.515 -32.75 8.75 C-31.85190201 5.45697405 -30.61583926 4.14023212 -28 2 C-27.34 2 -26.68 2 -26 2 C-25.67 1.34 -25.34 0.68 -25 0 C-16.26012871 -2.80924434 -8.75796486 -2.5477716 0 0 Z " fill="#374858" transform="translate(718,205)"/>
<path d="M0 0 C3.79023193 4.1512064 5.50902579 7.74852847 5.71875 13.40234375 C5.38875686 18.88847978 4.34551022 22.65171813 0.625 26.875 C-7.0702978 33.47096954 -18.34725338 33.32566415 -28.02441406 34.32373047 C-29.86625275 34.51935577 -29.86625275 34.51935577 -31.74530029 34.71893311 C-35.09392462 35.07367796 -38.44293108 35.42430297 -41.79218006 35.7730689 C-45.34616452 36.14417423 -48.89957982 36.52065458 -52.45306396 36.89651489 C-59.21402009 37.61082617 -65.9754654 38.32039183 -72.73710227 39.02822697 C-81.76563964 39.97363581 -90.79340404 40.92636447 -99.82121563 41.87867403 C-107.79438827 42.71962584 -115.76775527 43.5586102 -123.74182129 44.39105225 C-126.51604492 44.68082439 -129.29025532 44.97072289 -132.06445312 45.26074219 C-133.06832298 45.36566585 -133.06832298 45.36566585 -134.09247303 45.47270918 C-142.64264272 46.36727651 -151.1890078 47.29025874 -159.73242188 48.24707031 C-162.35482375 48.5372318 -164.97729416 48.82676565 -167.59978485 49.1161232 C-169.87916958 49.37104647 -172.1570812 49.63689692 -174.43511963 49.90353394 C-192.92973829 51.99316917 -192.92973829 51.99316917 -199.3125 47.375 C-203.52912255 43.19825095 -205.24158115 38.39029662 -205.46484375 32.5078125 C-205.12577813 27.34358236 -203.81150433 23.8687753 -200.375 19.875 C-195.21574335 15.59619942 -190.52908489 14.96749537 -183.96777344 14.28271484 C-182.95530422 14.16428915 -181.94283501 14.04586346 -180.89968491 13.92384911 C-177.72641945 13.55742123 -174.55125439 13.21443958 -171.375 12.875 C-169.4501637 12.66058048 -167.52539738 12.4455317 -165.60070801 12.22979736 C-160.73481953 11.69148234 -155.86663608 11.17801591 -150.99713898 10.67348099 C-147.76551695 10.33859794 -144.5343083 9.99992933 -141.30316162 9.66049194 C-134.41077634 8.93710373 -127.517915 8.21832043 -120.625 7.5 C-111.58821099 6.5578297 -102.55169378 5.61311676 -93.515625 4.6640625 C-92.41284714 4.54837166 -91.31006927 4.43268082 -90.1738739 4.31348419 C-72.77061932 2.48435513 -55.38421761 0.53196737 -38.0088501 -1.54550171 C-8.11609155 -5.11013172 -8.11609155 -5.11013172 0 0 Z " fill="#374858" transform="translate(617.375,795.125)"/>
<path d="M0 0 C3.50061566 0.14855554 6.99673791 0.139658 10.5 0.125 C11.42425781 0.12886719 12.34851563 0.13273438 13.30078125 0.13671875 C14.65236328 0.13478516 14.65236328 0.13478516 16.03125 0.1328125 C16.84142578 0.13168457 17.65160156 0.13055664 18.48632812 0.12939453 C21.05577571 0.05181751 21.05577571 0.05181751 23.76733398 -0.50927734 C27.78540848 -1.11922597 31.63666967 -1.0739138 35.69140625 -0.984375 C36.53726791 -0.96905731 37.38312958 -0.95373962 38.25462341 -0.93795776 C41.02416584 -0.88359098 43.79326648 -0.81825074 46.5625 -0.75 C47.98719604 -0.71649445 47.98719604 -0.71649445 49.44067383 -0.68231201 C116.62497797 0.96618393 116.62497797 0.96618393 134 9 C134.72387695 11.10351562 134.72387695 11.10351562 135 13 C130.85235513 15.85726647 126.67859457 17.04753077 121.81640625 18.08203125 C121.02633682 18.25297806 120.2362674 18.42392487 119.42225647 18.60005188 C111.72608003 20.18584663 104.03783028 20.98080309 96.20727539 21.52856445 C93.96050561 21.68588909 91.71581499 21.86171083 89.47070312 22.04101562 C64.60089585 23.96800127 39.72443594 24.18818943 14.79492188 24.18530273 C11.20665383 24.18522204 7.618515 24.19209208 4.03027344 24.20581055 C-15.41324742 24.27887451 -34.80190964 24.09187574 -54.22265625 23.08203125 C-55.02078861 23.04094931 -55.81892097 22.99986736 -56.64123917 22.95754051 C-102.73093877 20.5260964 -102.73093877 20.5260964 -115 14 C-115.33 13.01 -115.66 12.02 -116 11 C-110.0558993 4.03364996 -97.48229033 4.2511051 -89 3.375 C-87.35257812 3.19324219 -87.35257812 3.19324219 -85.671875 3.0078125 C-82.44906359 2.65651078 -79.22626392 2.3181657 -76 2 C-75.19038818 1.91945877 -74.38077637 1.83891754 -73.54663086 1.75593567 C-66.97167268 1.12614242 -60.41144885 0.73045297 -53.8125 0.46484375 C-52.78874268 0.42186661 -51.76498535 0.37888947 -50.71020508 0.33460999 C-48.56239163 0.24511435 -46.41452236 0.15694946 -44.26660156 0.07006836 C-41.00829601 -0.06216332 -37.75024623 -0.19972498 -34.4921875 -0.33789062 C-32.39063815 -0.42479763 -30.28907602 -0.51139645 -28.1875 -0.59765625 C-27.22884033 -0.63826675 -26.27018066 -0.67887726 -25.2824707 -0.72071838 C-8.1914482 -1.40116877 -8.1914482 -1.40116877 0 0 Z " fill="#BFD8E2" transform="translate(506,916)"/>
<path d="M0 0 C3.59977313 2.75072319 7.03000757 5.56871087 10 9 C10 9.99 10 10.98 10 12 C10.66 12 11.32 12 12 12 C16.34681838 21.63859727 17.75817527 31.35965857 14.5625 41.6875 C12.15829393 47.63747762 8.12688064 52.1760835 3 56 C2.01 56 1.02 56 0 56 C0 56.66 0 57.32 0 58 C-8.43115686 62.44371561 -15.69120137 62.44682233 -25 62 C-25 61.34 -25 60.68 -25 60 C-25.99 59.938125 -26.98 59.87625 -28 59.8125 C-33.8932634 58.98600574 -39.08649634 55.39356011 -43 51 C-48.23287007 43.78093107 -49.56009859 37.42143201 -49.5625 28.6875 C-49.56467529 27.84002197 -49.56685059 26.99254395 -49.5690918 26.11938477 C-49.35140901 17.82868735 -46.50837422 10.9336317 -40.9375 4.6875 C-39 3 -39 3 -37 3 C-36.67 2.01 -36.34 1.02 -36 0 C-32.535 -0.495 -32.535 -0.495 -29 -1 C-29 -1.66 -29 -2.32 -29 -3 C-19.80635776 -5.84125125 -8.18472029 -5.11375912 0 0 Z " fill="#374858" transform="translate(730,297)"/>
<path d="M0 0 C2.30624272 2.75821396 2.42396419 4.13307584 2.50292969 7.68652344 C2.53515625 8.71132813 2.56738281 9.73613281 2.60058594 10.79199219 C2.61476563 11.85546875 2.62894531 12.91894531 2.64355469 14.01464844 C2.67320312 15.09359375 2.70285156 16.17253906 2.73339844 17.28417969 C2.80402404 19.94441088 2.85675665 22.60376946 2.89355469 25.26464844 C3.55355469 25.26464844 4.21355469 25.26464844 4.89355469 25.26464844 C6.15660804 30.33941638 7.16391553 34.99261197 6.89355469 40.26464844 C7.55355469 40.26464844 8.21355469 40.26464844 8.89355469 40.26464844 C9.56950784 41.6769077 10.23395528 43.09467748 10.89355469 44.51464844 C11.26480469 45.30355469 11.63605469 46.09246094 12.01855469 46.90527344 C12.89355469 49.26464844 12.89355469 49.26464844 12.89355469 53.26464844 C6.5908803 52.89688675 1.56103625 52.09838922 -4.10644531 49.26464844 C-4.10644531 48.60464844 -4.10644531 47.94464844 -4.10644531 47.26464844 C-4.66332031 47.20277344 -5.22019531 47.14089844 -5.79394531 47.07714844 C-9.04615116 45.93448152 -10.67345923 43.69763452 -13.10644531 41.26464844 C-15.21432193 39.95752941 -17.34467268 38.74182457 -19.53222656 37.57324219 C-20.05171875 37.14140625 -20.57121094 36.70957031 -21.10644531 36.26464844 C-21.10644531 34.94464844 -21.10644531 33.62464844 -21.10644531 32.26464844 C-22.09644531 32.26464844 -23.08644531 32.26464844 -24.10644531 32.26464844 C-25.24408882 27.99848527 -26.10644531 24.69978533 -26.10644531 20.26464844 C-26.76644531 20.26464844 -27.42644531 20.26464844 -28.10644531 20.26464844 C-28.92491494 5.350313 -28.92491494 5.350313 -24.10644531 -0.73535156 C-16.99710689 -6.38636415 -6.95661461 -5.73106359 0 0 Z " fill="#FDFCFA" transform="translate(482.1064453125,556.7353515625)"/>
<path d="M0 0 C2.375 1.9375 2.375 1.9375 4 4 C4 4.99 4 5.98 4 7 C4.66 7 5.32 7 6 7 C7.18982084 14.41226226 6.67959957 20.69860023 5 28 C4.34 28 3.68 28 3 28 C2.505 29.485 2.505 29.485 2 31 C1.34 31 0.68 31 0 31 C-0.309375 31.94875 -0.61875 32.8975 -0.9375 33.875 C-2 37 -2 37 -3 39 C-3.66 39 -4.32 39 -5 39 C-5.0928125 39.928125 -5.0928125 39.928125 -5.1875 40.875 C-6 43 -6 43 -8.375 44.25 C-11 45 -11 45 -14 45 C-14.33 45.99 -14.66 46.98 -15 48 C-15.99 48 -16.98 48 -18 48 C-18 48.99 -18 49.98 -18 51 C-18.65226563 51.19335938 -19.30453125 51.38671875 -19.9765625 51.5859375 C-24.6771398 52.98640448 -29.35840891 54.41208726 -34 56 C-34.59720137 50.17728663 -32.528243 46.0790596 -30 41 C-29.34 41 -28.68 41 -28 41 C-27.93941406 40.24074219 -27.87882813 39.48148438 -27.81640625 38.69921875 C-27.73261719 37.70535156 -27.64882813 36.71148438 -27.5625 35.6875 C-27.48128906 34.70136719 -27.40007813 33.71523438 -27.31640625 32.69921875 C-27 30 -27 30 -26 27 C-25.34 27 -24.68 27 -24 27 C-23.98018066 26.35973877 -23.96036133 25.71947754 -23.93994141 25.05981445 C-23.84436399 22.1436472 -23.73481786 19.22816428 -23.625 16.3125 C-23.5940625 15.30509766 -23.563125 14.29769531 -23.53125 13.25976562 C-23.47324219 11.79506836 -23.47324219 11.79506836 -23.4140625 10.30078125 C-23.3826416 9.40528564 -23.3512207 8.50979004 -23.31884766 7.5871582 C-22.96744187 4.73582045 -22.292181 2.56405867 -21 0 C-14.61163502 -3.27208938 -6.43955913 -2.99514378 0 0 Z " fill="#FDFBF9" transform="translate(580,555)"/>
<path d="M0 0 C3.08337418 0.60875606 4.35802764 1.15676347 7 3 C7.9375 6.1875 7.9375 6.1875 8 9 C8.66 9 9.32 9 10 9 C10.96737162 14.20215926 10.89062943 18.69610938 10.0625 23.9375 C9.91264648 24.96327148 9.91264648 24.96327148 9.75976562 26.00976562 C9.51529548 27.6744909 9.2589029 29.33745822 9 31 C8.34 31 7.68 31 7 31 C6.9071875 32.2684375 6.9071875 32.2684375 6.8125 33.5625 C5.92149662 37.33212967 4.58423937 39.31300087 2.26953125 42.328125 C0.84942046 44.13534443 0.84942046 44.13534443 -0.6875 46.8125 C-2 49 -2 49 -4 51 C-6.5 50.9375 -6.5 50.9375 -9 50 C-10.3125 47.4375 -10.3125 47.4375 -11 45 C-11.66 45 -12.32 45 -13 45 C-15.87979967 38.61435726 -15.87979967 38.61435726 -16.5625 35.125 C-16.7790625 34.073125 -16.7790625 34.073125 -17 33 C-17.66 32.67 -18.32 32.34 -19 32 C-21.66609621 22.5797934 -21.510391 13.08059 -18.23828125 3.8515625 C-14.56238367 -2.33789351 -6.0838078 -0.69150054 0 0 Z " fill="#FDFBF9" transform="translate(526,553)"/>
<path d="M0 0 C0.99 0.66 1.98 1.32 3 2 C3 2.99 3 3.98 3 5 C3.61875 5.268125 4.2375 5.53625 4.875 5.8125 C7 7 7 7 9 10 C8.01 10 7.02 10 6 10 C6 10.99 6 11.98 6 13 C5.34 13 4.68 13 4 13 C3.67 11.35 3.34 9.7 3 8 C2.01 7.67 1.02 7.34 0 7 C-1.1875 3.9375 -1.1875 3.9375 -2 1 C-1.34 0.67 -0.68 0.34 0 0 Z " fill="#43505D" transform="translate(390,624)"/>
<path d="M0 0 C0.99 0.66 1.98 1.32 3 2 C3.6875 5.625 3.6875 5.625 4 9 C0.70897992 9.90786761 -1.81119049 10.59440475 -5 9 C-3.35 6.03 -1.7 3.06 0 0 Z " fill="#44525F" transform="translate(619,653)"/>
<path d="M0 0 C0.66 0 1.32 0 2 0 C3.1577506 3.47325181 3.06866652 6.36067448 3 10 C0.69 10.33 -1.62 10.66 -4 11 C-4 10.67 -4 10.34 -4 10 C-5.65 9.67 -7.3 9.34 -9 9 C-9.33 7.68 -9.66 6.36 -10 5 C-4.06 6.485 -4.06 6.485 2 8 C1.34 5.36 0.68 2.72 0 0 Z " fill="#E6BD74" transform="translate(493,602)"/>
<path d="M0 0 C1.39049921 3.16022548 0.90218951 4.27014325 -0.3125 7.625 C-2 11 -2 11 -4 13 C-5.32 13 -6.64 13 -8 13 C-7.1875 10.5625 -7.1875 10.5625 -6 8 C-5.01 7.67 -4.02 7.34 -3 7 C-1.84164327 4.02496878 -1.84164327 4.02496878 -1 1 C-0.67 0.67 -0.34 0.34 0 0 Z " fill="#ED9E18" transform="translate(597,593)"/>
<path d="M0 0 C2 3 2 3 1.5390625 6.57421875 C1.24703719 7.94806509 0.94185048 9.31916586 0.625 10.6875 C0.47289062 11.38939453 0.32078125 12.09128906 0.1640625 12.81445312 C-0.21275232 14.5454462 -0.60491263 16.27308587 -1 18 C-1.66 18 -2.32 18 -3 18 C-2.51679152 11.7945858 -1.66681876 6.00054754 0 0 Z " fill="#46515C" transform="translate(603,690)"/>
<path d="M0 0 C0.33 0.99 0.66 1.98 1 3 C-0.109375 5.0078125 -0.109375 5.0078125 -1.75 7.125 C-2.28109375 7.82882812 -2.8121875 8.53265625 -3.359375 9.2578125 C-5 11 -5 11 -8 12 C-8.66 10.68 -9.32 9.36 -10 8 C-8.9171875 7.9690625 -8.9171875 7.9690625 -7.8125 7.9375 C-3.67962484 6.55987495 -2.21282492 3.60643381 0 0 Z " fill="#E4B866" transform="translate(528,595)"/>
<path d="M0 0 C-0.33 1.98 -0.66 3.96 -1 6 C-1.66 6 -2.32 6 -3 6 C-3 6.66 -3 7.32 -3 8 C-3.99 8 -4.98 8 -6 8 C-5.62403791 5.21788056 -5.32681541 3.4120716 -3.5625 1.1875 C-2 0 -2 0 0 0 Z " fill="#ED9D1B" transform="translate(589,607)"/>
<path d="M0 0 C3 3 3 3 3.3984375 4.9375 C3.39070312 5.618125 3.38296875 6.29875 3.375 7 C3.38273438 7.680625 3.39046875 8.36125 3.3984375 9.0625 C3 11 3 11 0 14 C0 9.38 0 4.76 0 0 Z " fill="#E2A133" transform="translate(586,562)"/>
<path d="M0 0 C2.4294516 3.6441774 2.16179575 5.71241272 2 10 C0.68 9.67 -0.64 9.34 -2 9 C-1.34 6.03 -0.68 3.06 0 0 Z " fill="#4A5764" transform="translate(693,538)"/>
<path d="M0 0 C3 1 3 1 4.6875 3.9375 C6 7 6 7 6 9 C5.01 9 4.02 9 3 9 C3 8.34 3 7.68 3 7 C2.34 7 1.68 7 1 7 C1.33 5.35 1.66 3.7 2 2 C1.34 2 0.68 2 0 2 C0 1.34 0 0.68 0 0 Z " fill="#48555D" transform="translate(416,662)"/>
<path d="M0 0 C-0.33 1.65 -0.66 3.3 -1 5 C-3.49064888 5.68707555 -5.37886292 6 -8 6 C-3.375 0 -3.375 0 0 0 Z " fill="#43505E" transform="translate(652,615)"/>
<path d="M0 0 C0.8971875 0.309375 0.8971875 0.309375 1.8125 0.625 C1.8125 1.285 1.8125 1.945 1.8125 2.625 C0.1625 2.955 -1.4875 3.285 -3.1875 3.625 C-3.5175 4.615 -3.8475 5.605 -4.1875 6.625 C-5.1775 6.295 -6.1675 5.965 -7.1875 5.625 C-6.5275 5.295 -5.8675 4.965 -5.1875 4.625 C-5.1875 3.635 -5.1875 2.645 -5.1875 1.625 C-2.1875 -0.375 -2.1875 -0.375 0 0 Z " fill="#EAAB53" transform="translate(578.1875,618.375)"/>
<path d="M0 0 C2.31 0.66 4.62 1.32 7 2 C6.01 2.495 6.01 2.495 5 3 C5 3.66 5 4.32 5 5 C4.01 5.33 3.02 5.66 2 6 C1.34 5.67 0.68 5.34 0 5 C0 3.35 0 1.7 0 0 Z " fill="#3F4E5F" transform="translate(377,614)"/>
<path d="M0 0 C0.66 0.33 1.32 0.66 2 1 C1.25 5.75 1.25 5.75 -1 8 C-1.69748583 9.31747324 -2.36959957 10.64914193 -3 12 C-3.88336837 9.5332355 -4.1312406 8.36140628 -3.22265625 5.859375 C-2.83980469 5.16328125 -2.45695313 4.4671875 -2.0625 3.75 C-1.68222656 3.04359375 -1.30195312 2.3371875 -0.91015625 1.609375 C-0.60980469 1.07828125 -0.30945313 0.5471875 0 0 Z " fill="#4E5965" transform="translate(684,563)"/>
<path d="M0 0 C0.99 0.33 1.98 0.66 3 1 C3 1.99 3 2.98 3 4 C1.35 4.66 -0.3 5.32 -2 6 C-2 2 -2 2 0 0 Z " fill="#4A5563" transform="translate(636,630)"/>
<path d="M0 0 C-1.5625 1.5625 -1.5625 1.5625 -4 3 C-7.75 2.6875 -7.75 2.6875 -11 2 C-7.75267347 -1.24732653 -4.25451414 -1.41817138 0 0 Z " fill="#BACFD9" transform="translate(492,916)"/>
<path d="M0 0 C2.125 0.9375 2.125 0.9375 4 2 C4 2.99 4 3.98 4 5 C3.01 5 2.02 5 1 5 C-0.6875 3 -0.6875 3 -2 1 C-1.34 0.67 -0.68 0.34 0 0 Z " fill="#EDF2F5" transform="translate(386,616)"/>
<path d="M0 0 C3.36591866 1.44253657 5.51047079 3.33264727 8 6 C7.67 6.99 7.34 7.98 7 9 C4.25473365 7.62736683 3.55644352 5.59407253 2 3 C1.34 2.67 0.68 2.34 0 2 C0 1.34 0 0.68 0 0 Z " fill="#35404D" transform="translate(382,617)"/>
<path d="M0 0 C0.99 0.495 0.99 0.495 2 1 C2.6328125 3.06640625 2.6328125 3.06640625 3.125 5.5625 C3.29257812 6.38878906 3.46015625 7.21507812 3.6328125 8.06640625 C3.75398438 8.70449219 3.87515625 9.34257813 4 10 C3.01 10 2.02 10 1 10 C0.67 6.7 0.34 3.4 0 0 Z " fill="#E9B560" transform="translate(508,585)"/>
<path d="M0 0 C-2.31 1.65 -4.62 3.3 -7 5 C-6.625 2.5625 -6.625 2.5625 -6 0 C-4 -1 -4 -1 0 0 Z " fill="#F7E5D4" transform="translate(565,555)"/>
<path d="M0 0 C0.66 1.32 1.32 2.64 2 4 C0.625 6 0.625 6 -1 8 C-1.66 8 -2.32 8 -3 8 C-1.125 2.25 -1.125 2.25 0 0 Z " fill="#4B5763" transform="translate(613,664)"/>
<path d="" fill="#374858" transform="translate(0,0)"/>
<path d="" fill="#768084" transform="translate(0,0)"/>
<path d="" fill="#374858" transform="translate(0,0)"/>
</svg>
