<?xml version="1.0" standalone="no"?>
<!DOCTYPE svg PUBLIC "-//W3C//DTD SVG 20010904//EN"
 "http://www.w3.org/TR/2001/REC-SVG-20010904/DTD/svg10.dtd">
<svg version="1.0" xmlns="http://www.w3.org/2000/svg"
 width="1024.000000pt" height="1024.000000pt" viewBox="0 0 1024.000000 1024.000000"
 preserveAspectRatio="xMidYMid meet">

<g transform="translate(0.000000,1024.000000) scale(0.100000,-0.100000)"
fill="#000000" stroke="none">
<path d="M0 5120 l0 -5120 5120 0 5120 0 0 235 c0 129 -1 235 -2 235 -2 0
-2235 3 -4963 5 -2728 3 -5011 7 -5073 10 -62 2 -120 9 -130 15 -16 11 -15 11
2 6 10 -4 62 -3 115 1 88 7 92 8 46 14 -105 12 125 15 1903 17 l1342 2 0 135
0 135 620 0 620 0 0 -135 0 -135 425 -2 425 -3 0 138 0 137 610 0 610 0 0
-135 0 -135 1725 0 1725 0 0 4850 0 4850 -5120 0 -5120 0 0 -5120z m5272 4716
c141 -55 276 -117 306 -142 16 -13 39 -68 77 -184 30 -91 55 -175 55 -187 0
-29 -80 -227 -128 -318 -44 -82 -61 -93 -247 -150 -153 -47 -199 -47 -339 -6
-223 66 -228 71 -322 282 -85 189 -85 188 -29 349 26 74 49 149 52 166 6 39
60 75 198 132 113 47 246 100 257 101 4 1 58 -19 120 -43z m588 5 c12 -24 4
-48 -22 -62 -24 -13 -48 4 -48 35 0 44 50 63 70 27z m-1426 -21 c43 -16 52
-50 26 -101 -59 -117 -125 -229 -135 -229 -14 0 -155 253 -155 278 0 5 9 21
21 36 20 25 24 26 119 26 54 0 110 -4 124 -10z m1628 -77 c4 -39 28 -42 28 -4
0 36 9 38 41 12 23 -18 23 -20 6 -38 -25 -28 -21 -35 17 -28 28 6 34 3 39 -14
7 -27 -1 -32 -40 -25 -32 6 -46 -7 -23 -21 16 -10 12 -42 -6 -49 -30 -11 -40
-6 -39 21 0 14 -6 28 -14 31 -10 3 -13 -3 -9 -27 4 -27 2 -31 -19 -31 -27 0
-41 26 -24 43 21 21 12 35 -21 33 -27 -1 -33 3 -33 19 0 17 6 20 38 17 37 -3
52 13 22 24 -20 8 -19 41 3 53 26 16 30 13 34 -16z m546 5 c35 -35 -14 -102
-57 -79 -45 25 -33 91 17 91 16 0 33 -5 40 -12z m-2755 -43 c19 -19 11 -52
-15 -60 -37 -12 -64 35 -36 63 16 16 33 15 51 -3z m-264 -39 c17 -20 -3 -56
-29 -56 -25 0 -39 48 -19 61 20 13 35 11 48 -5z m3345 -42 c23 -22 20 -51 -8
-69 -32 -21 -66 -2 -66 37 0 42 45 62 74 32z m236 -117 c0 -40 5 -70 15 -83
19 -25 19 -58 0 -74 -12 -10 -15 -38 -15 -131 0 -99 -3 -119 -15 -119 -12 0
-15 19 -15 111 0 96 -3 114 -20 136 -11 14 -20 33 -20 43 0 9 9 25 20 35 16
14 20 31 20 82 0 49 3 63 15 63 12 0 15 -14 15 -63z m-3860 -22 l0 -75 -94 0
c-53 0 -96 4 -98 10 -1 5 -1 37 0 69 l4 60 81 4 c45 1 88 4 95 5 9 1 12 -19
12 -73z m3238 -63 c2 -116 2 -122 -17 -122 -11 0 -23 5 -26 11 -8 13 -7 218 1
231 3 5 13 8 22 6 15 -3 17 -21 20 -126z m-2398 -44 c-12 -10 -19 -22 -15 -26
4 -4 10 -1 12 6 5 14 23 17 23 3 0 -5 -7 -12 -16 -15 -19 -7 -47 11 -38 25 3
5 -2 6 -10 3 -24 -9 -19 7 11 38 l26 28 15 -22 c14 -19 13 -23 -8 -40z m2143
-7 c61 -73 69 -96 37 -106 -19 -6 -38 11 -114 101 -26 31 -32 54 -19 67 17 18
43 1 96 -62z m557 49 c10 -18 2 -30 -56 -95 -64 -71 -68 -74 -86 -58 -10 9
-18 21 -18 27 0 17 120 146 136 146 7 0 18 -9 24 -20z m-960 -20 c0 -33 -11
-38 -30 -15 -10 12 -10 18 0 30 19 23 30 18 30 -15z m-2091 -57 c177 -156 298
-273 315 -305 14 -26 31 -39 69 -52 125 -44 163 -181 74 -263 -43 -39 -100
-47 -324 -42 -173 4 -203 13 -246 71 -52 70 -9 181 83 215 56 21 65 36 26 41
-43 6 -112 -32 -142 -78 -48 -72 -43 -175 10 -219 9 -8 16 -17 16 -22 0 -10
-189 -12 -214 -3 -14 5 -16 27 -16 141 l0 135 33 32 c18 17 78 74 133 127 l99
96 139 -128 c76 -71 145 -129 152 -129 33 0 8 33 -93 125 -60 54 -124 116
-145 138 -20 23 -42 38 -50 35 -7 -3 -93 -81 -191 -173 -98 -92 -179 -166
-181 -164 -1 2 -12 17 -24 33 -12 16 -22 35 -22 43 0 8 21 37 48 65 49 53 363
348 370 348 2 0 38 -30 81 -67z m391 37 c0 -5 -4 -10 -10 -10 -5 0 -10 5 -10
10 0 6 5 10 10 10 6 0 10 -4 10 -10z m281 -40 c-30 -26 -45 -26 -31 0 6 11 21
20 33 20 l22 -1 -24 -19z m1421 -27 c7 -25 -1 -43 -18 -43 -8 0 -14 10 -14 23
0 38 24 52 32 20z m-3250 -33 c12 -30 27 -45 62 -62 25 -12 46 -24 46 -27 0
-4 -22 -18 -49 -33 -37 -20 -52 -36 -61 -62 -6 -20 -15 -36 -18 -36 -4 0 -18
20 -31 45 -17 32 -35 50 -62 62 -46 20 -46 32 1 48 32 11 80 66 80 92 0 25 15
12 32 -27z m5035 -22 c7 -6 10 -20 7 -33 -6 -22 -5 -23 109 -21 64 0 118 -1
121 -5 3 -3 -4 -23 -15 -46 -42 -86 -39 -98 50 -200 45 -50 81 -96 81 -102 0
-7 8 -7 25 1 26 12 55 -2 55 -27 0 -15 21 -25 58 -26 21 -1 17 -4 -15 -12
l-43 -10 0 -98 c0 -55 -4 -99 -9 -99 -8 0 -21 94 -21 156 0 24 -5 34 -20 39
-11 3 -20 10 -20 15 0 5 -43 58 -96 119 -110 127 -108 126 -258 114 l-99 -8
-70 -95 c-38 -52 -78 -110 -89 -127 -11 -18 -27 -33 -36 -33 -13 0 -13 2 2 19
16 18 16 18 -15 12 l-31 -6 -2 -84 c-1 -58 -5 -86 -13 -88 -10 -4 -13 17 -13
81 0 71 -3 87 -17 95 -10 5 -22 9 -28 9 -23 1 -14 21 16 36 23 12 46 14 85 10
30 -4 54 -3 54 2 0 5 45 70 100 144 54 74 101 142 104 152 2 10 -3 26 -12 35
-15 15 -19 13 -47 -19 -87 -102 -131 -148 -139 -148 -5 0 -2 8 5 17 12 15 12
16 -4 10 -11 -4 -16 -3 -12 3 3 6 13 10 21 10 8 0 14 6 14 14 0 8 7 16 15 20
8 3 20 17 25 31 5 14 14 25 20 25 6 0 8 5 5 10 -3 6 0 10 8 10 7 0 24 21 37
48 13 26 28 53 33 60 11 14 52 9 74 -10z m-4547 -113 c0 -69 4 -125 8 -125 5
0 15 -11 22 -25 31 -58 -59 -106 -96 -50 -18 28 -11 60 17 75 17 10 19 22 19
130 0 100 3 120 15 120 13 0 15 -21 15 -125z m4345 80 c0 -23 -5 -31 -21 -33
-24 -3 -38 20 -28 50 4 13 13 18 27 16 17 -2 22 -10 22 -33z m-3015 -58 c0
-59 4 -89 16 -105 15 -22 15 -25 -2 -45 -11 -12 -20 -24 -22 -27 -2 -2 -14 9
-27 25 -20 26 -21 32 -9 45 9 11 14 45 15 103 1 67 5 87 15 87 11 0 14 -19 14
-83z m2140 64 c63 -33 74 -67 80 -236 5 -123 10 -158 27 -195 47 -103 38 -175
-29 -235 -50 -46 -79 -57 -153 -58 -93 -1 -157 38 -190 116 -23 56 -19 105 16
177 30 61 32 73 38 216 5 133 9 155 26 174 53 60 122 75 185 41z m-708 -36 c4
-19 1 -25 -13 -25 -13 0 -19 7 -19 23 0 44 24 46 32 2z m0 -97 c8 -21 -2 -38
-23 -38 -17 0 -20 14 -10 48 3 8 30 0 33 -10z m398 -18 l0 -30 -100 0 c-90 0
-100 2 -100 18 0 34 21 42 112 42 l88 0 0 -30z m664 15 c14 -37 -3 -45 -100
-45 -93 0 -94 0 -94 24 0 29 13 33 116 35 56 1 73 -2 78 -14z m213 -45 c9 -11
36 -22 59 -26 30 -4 44 -12 47 -25 6 -22 3 -22 -80 -8 -63 11 -63 11 -63 45 0
38 12 43 37 14z m-4829 -32 c7 -7 12 -24 12 -38 0 -14 -5 -31 -12 -38 -19 -19
-66 -15 -78 7 -23 44 -5 81 40 81 14 0 31 -5 38 -12z m2382 -43 c0 -26 -24
-55 -45 -55 -8 0 -22 12 -32 26 -17 26 -16 27 11 50 22 19 31 22 47 14 11 -6
19 -21 19 -35z m1170 -11 c0 -31 -23 -28 -28 4 -2 15 2 22 12 22 11 0 16 -9
16 -26z m-3091 -30 c22 -28 18 -47 -14 -74 -22 -18 -65 -2 -76 27 -6 16 -2 29
12 47 26 33 52 33 78 0z m3160 -102 c-1 -48 2 -98 5 -110 6 -18 3 -22 -14 -22
-18 0 -21 -4 -17 -22 18 -79 18 -88 3 -94 -32 -12 -69 11 -80 50 -14 51 -29
50 -40 -2 -8 -40 -14 -44 -51 -44 -53 0 -56 1 -49 30 4 15 13 39 21 55 13 27
13 27 -18 27 -24 0 -30 3 -25 16 3 9 6 58 6 110 l0 94 130 0 130 0 -1 -88z
m2351 -17 c20 -22 22 -29 12 -43 -22 -31 -33 -64 -27 -83 5 -15 1 -19 -15 -19
-16 0 -20 5 -16 18 3 9 1 24 -4 32 -8 12 -10 12 -16 -3 -3 -9 -10 -17 -14 -17
-10 0 -24 116 -15 129 12 21 70 12 95 -14z m-1175 -18 c39 -22 40 -25 43 -80
l3 -57 -46 0 c-44 0 -45 -1 -45 -32 0 -30 -3 -33 -31 -35 -17 -1 -38 -8 -45
-14 -8 -7 -17 -9 -20 -6 -3 3 -8 45 -11 95 l-5 89 54 31 c29 18 55 32 58 32 3
0 23 -11 45 -23z m695 -62 c19 -23 4 -45 -98 -139 -148 -136 -165 -127 -32 16
39 43 69 82 66 86 -6 10 30 52 43 52 5 0 14 -7 21 -15z m-5181 -59 c48 -33 72
-44 89 -40 17 5 22 2 22 -14 0 -11 16 -39 35 -63 30 -35 35 -47 29 -73 -4 -17
-8 -40 -9 -51 -1 -11 -3 -21 -4 -22 0 0 -31 30 -68 68 -64 67 -169 146 -179
136 -3 -2 -31 3 -62 13 -189 59 -356 18 -492 -121 -61 -62 -119 -163 -140
-244 -7 -27 -17 -54 -21 -59 -15 -17 -10 72 7 144 16 67 16 69 -5 98 -29 41
-27 53 19 108 22 27 38 55 35 61 -3 9 6 13 25 13 17 0 30 5 30 10 0 28 139 90
140 63 0 -5 6 -16 14 -25 12 -16 17 -16 77 3 79 25 205 28 267 5 43 -15 43
-15 37 5 -18 56 63 47 154 -15z m493 -88 c-3 -104 -6 -128 -18 -128 -11 0 -14
22 -14 120 0 103 2 120 17 129 10 5 18 9 18 8 0 -1 -1 -59 -3 -129z m4852 39
c38 -73 38 -74 72 -68 19 3 71 5 115 3 62 -3 79 -7 79 -18 0 -13 -18 -15 -111
-12 -106 3 -110 2 -104 -17 3 -11 11 -51 17 -88 11 -62 14 -68 33 -61 39 13
235 16 281 5 38 -10 47 -9 60 4 18 17 17 17 38 9 19 -7 21 -45 4 -62 -16 -16
-48 -15 -48 1 -1 6 -15 -22 -33 -63 -69 -162 -95 -187 -188 -178 -33 4 -55 1
-63 -8 -20 -20 -28 -177 -12 -238 21 -79 30 -182 17 -190 -13 -9 -37 38 -45
91 -3 23 -11 53 -17 67 l-12 25 -38 -26 -38 -25 -28 20 c-37 26 -110 105 -152
164 -19 27 -37 46 -39 43 -9 -9 67 -148 105 -195 77 -94 228 -203 293 -212
l25 -3 -1 105 c0 74 -6 129 -21 185 -12 44 -25 100 -29 125 -6 39 -5 43 9 32
13 -11 57 -112 81 -186 6 -17 19 -8 90 63 55 55 82 89 79 100 -2 9 5 25 16 35
18 16 25 17 46 8 14 -7 25 -20 25 -31 0 -22 -36 -52 -54 -45 -6 2 -33 -23 -60
-56 -27 -32 -66 -73 -87 -90 l-39 -31 0 -102 c0 -113 -11 -147 -52 -161 -59
-21 -197 65 -291 181 -153 189 -180 244 -197 397 -15 131 -7 166 55 261 38 56
130 145 151 145 6 0 21 -33 34 -72 12 -40 26 -85 30 -100 5 -14 5 -29 2 -33
-4 -3 1 -3 11 1 10 3 17 17 17 31 0 52 -33 164 -70 238 -30 59 -37 82 -29 92
21 25 36 13 73 -60z m-3496 23 c9 -15 10 -26 2 -40 -14 -26 -56 -26 -70 0 -25
46 40 84 68 40z m410 8 c17 -17 15 -43 -4 -59 -31 -26 -70 25 -44 56 15 18 32
19 48 3z m280 0 c28 -28 1 -75 -37 -63 -11 3 -23 15 -26 26 -12 38 35 65 63
37z m280 0 c18 -18 15 -43 -8 -63 -19 -17 -21 -17 -40 0 -24 22 -25 38 -4 59
19 19 36 20 52 4z m-858 -28 c0 -5 -13 -10 -29 -10 -17 0 -33 5 -36 10 -4 6 8
10 29 10 20 0 36 -4 36 -10z m160 -5 c0 -11 -11 -15 -40 -15 -29 0 -40 4 -40
15 0 11 11 15 40 15 29 0 40 -4 40 -15z m270 5 c0 -5 -15 -10 -32 -9 -31 1
-32 1 -8 9 35 11 40 11 40 0z m550 0 c0 -5 -9 -10 -20 -10 -11 0 -20 5 -20 10
0 6 9 10 20 10 11 0 20 -4 20 -10z m1620 -31 c0 -23 -28 -26 -37 -3 -6 16 15
37 29 28 4 -3 8 -14 8 -25z m-4752 -7 c210 -66 357 -302 324 -523 -10 -67 -53
-179 -69 -179 -4 0 -24 22 -43 47 -46 61 -129 143 -146 143 -33 0 -20 -27 46
-96 l72 -76 -22 -23 c-58 -62 -235 -105 -354 -86 -112 17 -175 48 -247 120
-82 82 -109 146 -109 255 0 96 22 167 77 244 112 157 300 227 471 174z m5328
-77 c-98 -121 -126 -201 -126 -369 l0 -79 -52 7 c-68 9 -123 42 -185 109 -44
48 -113 168 -113 195 0 30 202 22 297 -12 l41 -14 39 65 c36 63 116 153 135
153 5 0 -11 -25 -36 -55z m-201 30 c0 -5 -33 -11 -72 -13 -61 -2 -73 0 -73 13
0 13 12 15 73 13 39 -2 72 -7 72 -13z m-291 -27 c4 -17 -3 -32 -28 -58 -49
-52 -114 -137 -121 -160 -8 -25 -55 -28 -55 -4 0 9 31 50 69 91 41 44 67 81
64 89 -3 8 -2 25 1 39 9 34 61 36 70 3z m1191 1 c8 -26 -16 -54 -39 -46 -16 6
-22 48 -9 60 14 14 42 6 48 -14z m-2420 -59 c20 -23 14 -64 -11 -74 -44 -17
-87 60 -46 83 25 15 37 13 57 -9z m-1723 -27 c20 -18 24 -63 6 -81 -31 -31
-98 -1 -98 44 0 48 55 70 92 37z m-1208 -1 c-7 -4 -14 -18 -17 -32 -4 -21 -4
-20 -6 8 -1 24 3 32 17 32 11 0 13 -3 6 -8z m-1349 -44 c-4 -13 -11 -27 -16
-32 -15 -17 -23 3 -11 29 15 32 36 34 27 3z m3852 -1 c17 -16 18 -45 18 -353
0 -321 -1 -336 -19 -350 -29 -21 -923 -21 -952 0 -17 13 -19 30 -22 208 -2
106 -1 261 3 344 7 142 8 153 29 162 14 7 172 10 473 9 419 -2 454 -3 470 -20z
m-1939 -39 c2 -19 -2 -28 -17 -33 -27 -8 -41 1 -41 29 0 29 9 38 35 34 13 -2
21 -12 23 -30z m320 -7 c7 -47 -56 -72 -78 -31 -12 22 0 55 22 63 23 8 53 -10
56 -32z m-626 22 c3 -5 -13 -39 -34 -78 l-38 -70 6 45 c3 25 7 51 10 58 2 6
-3 12 -11 12 -11 0 -15 -13 -17 -47 -1 -27 -2 -57 -2 -67 -1 -11 -6 -21 -12
-23 -12 -4 -24 49 -24 105 0 23 -5 32 -16 32 -12 0 -15 -6 -11 -22 4 -13 9
-42 13 -64 5 -32 19 -56 64 -103 l57 -61 111 0 c93 0 112 -3 112 -15 0 -12
-20 -15 -119 -15 l-118 0 -50 55 -51 55 -128 0 c-70 0 -125 2 -123 4 5 4 156
16 209 16 55 0 21 20 -38 22 -40 2 -51 6 -47 16 3 8 5 42 5 77 l0 64 48 4 c92
7 201 7 204 0z m3236 -65 c3 -16 -8 -18 -117 -18 -94 0 -121 3 -121 13 0 25
14 28 124 25 96 -3 111 -5 114 -20z m360 0 c3 -16 -6 -18 -92 -18 -52 0 -98 4
-101 10 -15 24 10 31 98 28 78 -3 92 -6 95 -20z m1776 6 c18 -17 21 -55 7 -69
-5 -6 -11 -47 -13 -92 -2 -45 -6 -84 -10 -88 -18 -18 -28 13 -28 84 0 58 -4
82 -15 91 -30 25 -8 90 30 90 7 0 21 -7 29 -16z m-2044 -4 c0 -5 -18 -10 -40
-10 -22 0 -40 5 -40 10 0 6 18 10 40 10 22 0 40 -4 40 -10z m-4974 -32 c-8
-38 -13 -45 -27 -31 -14 14 0 63 18 63 12 0 14 -7 9 -32z m2656 -71 c3 -12 6
-38 7 -57 l1 -35 -105 3 -105 3 0 33 c0 37 18 96 29 96 4 0 17 9 28 19 20 19
21 19 32 -5 12 -28 37 -34 26 -6 -23 54 -18 56 31 14 27 -24 52 -53 56 -65z
m-1300 63 c-2 -17 1 -37 8 -45 11 -13 8 -15 -19 -15 -36 0 -39 15 -16 60 20
39 33 38 27 0z m3109 -106 c68 -63 125 -118 126 -122 2 -4 -8 -20 -21 -37
l-24 -30 -39 35 c-21 19 -64 59 -95 89 -32 30 -60 52 -64 48 -4 -3 24 -35 61
-71 l68 -65 -7 -62 c-3 -34 -6 -84 -6 -110 l0 -49 -135 0 -135 0 0 120 c0 66
-3 120 -7 120 -3 0 -22 -12 -41 -27 l-35 -26 -18 24 c-10 13 -19 29 -19 36 0
11 249 243 261 243 3 0 61 -52 130 -116z m-2521 54 c0 -36 25 -81 59 -104 19
-13 30 -44 16 -44 -16 0 -60 38 -80 69 -31 51 -39 79 -25 96 20 24 30 17 30
-17z m-1952 -61 c2 -20 -1 -37 -6 -37 -13 0 -22 25 -22 57 0 39 25 22 28 -20z
m5510 -4 c7 -16 44 -70 82 -121 39 -51 70 -97 70 -103 0 -19 -40 -8 -51 14 -6
12 -43 66 -81 119 -38 54 -67 102 -63 108 11 18 30 11 43 -17z m-5352 -145
c14 -29 47 -80 72 -113 38 -48 42 -57 21 -43 -15 9 -36 16 -47 15 -17 -1 -18
-4 -9 -27 6 -14 16 -31 21 -39 9 -12 8 -12 -10 -3 -12 6 -37 13 -56 15 -53 6
-58 13 -52 61 8 55 -18 114 -53 122 -31 8 -25 23 17 46 54 28 67 24 96 -34z
m997 28 c18 -7 46 -28 62 -45 l30 -32 0 -131 c0 -92 -4 -132 -12 -135 -8 -3
-12 34 -15 136 -2 76 -5 141 -8 144 -13 12 -70 18 -70 7 0 -6 -7 -18 -15 -26
-8 -9 -15 -23 -15 -33 0 -10 -10 -23 -22 -29 -13 -6 -17 -11 -10 -11 6 -1 12
-8 12 -16 0 -9 -6 -12 -17 -8 -15 5 -14 3 2 -10 19 -16 19 -16 -10 -17 -17 0
-37 -6 -45 -12 -12 -11 -12 -10 -2 4 8 10 9 18 3 22 -6 4 0 28 14 61 14 30 30
75 36 100 13 50 26 55 82 31z m4794 -8 c4 -7 23 -49 41 -93 18 -44 35 -85 38
-91 9 -20 -155 -94 -248 -112 -89 -17 -105 -25 -68 -35 65 -17 227 33 301 93
l36 29 32 -36 c17 -19 29 -39 25 -44 -14 -24 -97 -69 -151 -83 -94 -25 -266
-17 -296 13 -26 26 77 255 145 323 20 20 47 38 60 41 46 9 77 7 85 -5z m1076
-36 c21 -47 8 -112 -22 -112 -15 0 -20 11 -26 46 -6 44 8 104 24 104 4 0 15
-17 24 -38z m141 -25 c12 -19 1 -43 -27 -61 -21 -14 -47 1 -58 32 -6 17 -3 28
11 42 22 22 56 16 74 -13z m-7152 1 c0 -7 2 -50 2 -95 1 -79 2 -83 36 -118 43
-44 85 -56 156 -45 62 10 74 16 74 34 0 15 47 42 56 33 12 -11 -17 -36 -34
-30 -14 4 -14 3 -3 -5 13 -9 11 -14 -10 -31 -38 -32 -86 -44 -142 -37 -90 12
-146 59 -168 139 -10 38 -6 116 7 152 7 18 23 20 26 3z m2255 -14 c2 -6 -23
-27 -56 -47 -95 -59 -112 -45 -26 22 49 39 75 47 82 25z m2898 -1 c71 -24 156
-110 185 -188 34 -94 26 -187 -28 -300 -23 -48 -42 -95 -42 -106 0 -17 -8 -19
-100 -19 l-100 0 0 123 0 122 30 20 c29 19 49 59 37 72 -4 3 -20 -6 -37 -21
-40 -33 -79 -34 -110 -1 -26 28 -50 33 -50 10 0 -16 33 -54 61 -71 13 -7 17
-35 22 -131 l6 -123 -110 0 c-73 0 -108 3 -104 10 4 6 -15 57 -41 113 -45 95
-48 108 -49 182 0 66 5 90 27 137 34 73 104 141 171 167 65 25 166 27 232 4z
m-2583 -49 c64 -21 140 -92 175 -162 24 -50 28 -69 28 -147 0 -78 -4 -97 -27
-140 -14 -27 -44 -67 -66 -89 -36 -34 -43 -37 -73 -30 -19 4 -38 7 -42 6 -5
-2 -6 2 -3 7 3 5 -39 11 -97 13 -90 4 -110 8 -169 37 -38 18 -68 39 -68 46 0
8 14 36 31 63 31 50 55 173 31 159 -14 -9 -3 31 17 63 10 15 11 21 3 16 -14
-9 -55 -84 -57 -106 -1 -8 -2 -27 -3 -42 -2 -28 -3 -28 -68 -28 l-67 0 6 58
c8 73 29 125 74 180 91 111 223 145 375 96z m3058 -14 c0 -5 -2 -10 -4 -10 -3
0 -8 5 -11 10 -3 6 -1 10 4 10 6 0 11 -4 11 -10z m-4735 -60 c-112 -116 -361
-144 -528 -58 -56 28 -32 34 56 12 149 -36 307 -17 432 55 59 34 77 30 40 -9z
m215 28 c0 -9 4 -8 10 2 8 12 10 9 10 -11 0 -21 -6 -28 -27 -32 -25 -5 -26 -4
-10 8 12 8 14 15 8 20 -14 8 -14 25 -1 25 6 0 10 -6 10 -12z m841 -5 c11 -13
14 -86 14 -379 0 -342 -1 -363 -19 -383 -18 -20 -28 -21 -266 -21 -229 0 -250
1 -271 19 l-24 19 -3 355 c-2 221 1 364 7 380 l11 27 269 0 c238 0 270 -2 282
-17z m-2269 -25 c9 -7 18 -22 20 -33 2 -13 13 -22 33 -25 38 -7 67 -57 41 -72
-9 -5 -19 -26 -22 -48 -4 -21 -13 -41 -21 -44 -18 -7 -9 -23 30 -46 27 -17 33
-17 58 -4 71 36 135 -56 73 -105 -36 -28 -50 -26 -85 9 l-30 30 -35 -27 c-45
-34 -61 -62 -43 -74 8 -5 18 -9 23 -9 4 0 5 -7 2 -16 -10 -26 3 -54 25 -54 12
0 19 -7 19 -20 0 -11 6 -29 13 -41 10 -17 9 -22 -8 -35 -11 -8 -20 -20 -20
-26 0 -7 -11 -15 -25 -18 -14 -3 -29 -16 -35 -28 -5 -12 -17 -22 -25 -22 -8 0
-24 -3 -36 -6 -17 -5 -22 0 -27 25 -5 25 -12 31 -31 31 -16 0 -32 10 -45 29
-23 32 -28 81 -8 81 7 0 18 14 24 31 11 27 14 29 34 19 20 -11 21 -10 15 15
-9 36 9 58 36 44 42 -22 12 12 -51 60 l-65 48 -24 -28 c-51 -61 -126 -12 -99
64 13 39 49 51 89 31 30 -15 32 -15 56 9 l25 26 -33 66 -33 66 24 25 c13 13
28 23 35 20 13 -5 54 34 54 52 0 16 52 15 72 0z m1373 -26 c-11 -2 -24 -8 -29
-13 -19 -17 -29 -9 -12 10 11 12 24 17 39 13 21 -6 21 -6 2 -10z m5259 -18
c16 -41 -8 -61 -34 -29 -10 12 -10 18 0 30 16 19 26 19 34 -1z m-5311 -34 c-3
-12 -8 -19 -11 -16 -5 6 5 36 12 36 2 0 2 -9 -1 -20z m6291 -26 c22 -22 20
-61 -4 -74 -48 -26 -91 30 -55 70 22 24 38 25 59 4z m-562 -29 c9 -21 8 -28
-7 -45 -10 -11 -23 -20 -28 -20 -17 0 -47 32 -47 50 0 44 63 56 82 15z m-2212
-90 c0 -12 -19 -12 -23 0 -4 9 -1 12 9 8 7 -3 14 -7 14 -8z m40 -9 c0 -33 -10
-57 -21 -50 -5 3 -7 10 -4 15 4 5 1 9 -6 9 -10 0 -10 3 -2 11 6 6 9 18 6 25
-3 8 1 14 11 14 10 0 16 -9 16 -24z m1600 14 c24 -15 9 -19 -82 -23 -90 -4
-126 4 -98 23 19 12 160 13 180 0z m866 -36 c3 -19 4 -57 2 -84 l-5 -48 36 -6
c20 -3 58 -19 83 -35 l48 -30 49 49 c52 52 68 59 89 38 24 -24 12 -53 -39 -95
-58 -49 -69 -51 -94 -23 -10 11 -20 18 -23 15 -6 -5 48 -55 59 -55 4 0 14 -19
24 -42 13 -34 15 -59 10 -128 -8 -90 -13 -109 -25 -90 -5 7 -17 -5 -34 -34
-14 -25 -41 -56 -59 -70 -94 -71 -271 -54 -338 34 -13 17 -35 44 -48 61 -51
65 -53 254 -3 254 15 0 52 59 52 84 0 22 63 56 123 67 32 5 37 9 31 26 -8 25
-7 125 1 138 3 6 17 10 30 10 20 0 25 -7 31 -36z m-2584 2 c47 -20 108 -89
109 -124 2 -45 -1 -65 -22 -120 -10 -29 -19 -64 -19 -77 0 -22 -4 -25 -35 -25
-24 0 -35 -5 -35 -15 0 -10 11 -15 35 -15 32 0 35 -2 35 -30 0 -24 -5 -31 -26
-36 -38 -10 -177 4 -185 18 -5 7 -11 9 -15 5 -4 -3 -15 3 -25 15 -23 26 -25
35 -4 18 9 -7 18 -10 22 -6 3 3 1 6 -5 6 -7 0 -12 6 -12 14 0 15 48 25 125 27
42 0 46 2 26 10 -13 5 -50 8 -81 5 -32 -2 -64 0 -71 4 -16 11 -22 43 -6 33 7
-3 5 2 -4 13 -9 10 -24 40 -34 66 -10 26 -25 53 -33 60 -13 11 -14 9 -8 -17 5
-22 4 -26 -4 -15 -24 36 -5 104 42 147 54 51 159 68 230 39z m1634 -89 l-1
-62 -142 -3 c-122 -2 -143 0 -143 12 0 13 23 16 133 18 l132 3 -3 59 c-3 51
-1 58 11 48 10 -9 14 -31 13 -75z m-2642 11 c24 -40 -44 -80 -71 -42 -17 23
-16 29 3 49 20 20 53 16 68 -7z m2866 -13 c0 -18 -5 -25 -20 -25 -15 0 -20 7
-20 25 0 18 5 25 20 25 15 0 20 -7 20 -25z m-714 -10 c15 -23 15 -27 0 -50
-12 -18 -16 -49 -16 -124 0 -92 -9 -126 -28 -106 -4 4 -7 50 -7 103 -1 77 -5
103 -19 125 -17 25 -17 29 -2 52 9 14 25 25 36 25 11 0 27 -11 36 -25z m1164
-54 c42 -40 50 -70 25 -91 -18 -15 -22 -14 -83 39 -55 48 -62 64 -36 92 20 22
36 15 94 -40z m-3004 3 c10 -24 25 -40 45 -47 37 -14 37 -28 -1 -49 -17 -9
-35 -29 -40 -43 -11 -29 -40 -34 -40 -6 0 18 -22 41 -66 67 -17 10 -16 12 14
28 18 9 40 32 49 51 9 19 18 35 20 35 2 0 11 -16 19 -36z m2777 -16 c6 -17
-10 -58 -22 -58 -24 0 -41 14 -41 34 0 13 3 26 7 29 11 12 51 8 56 -5z m-3489
-24 c9 -8 16 -20 16 -26 0 -13 -30 -48 -41 -48 -13 0 -39 30 -39 45 0 15 27
45 40 45 5 0 16 -7 24 -16z m-1983 -61 c34 -20 42 -41 33 -77 -13 -54 -82 -73
-122 -36 -39 37 -20 113 31 123 12 2 24 5 25 6 2 0 17 -7 33 -16z m-336 -18
c0 -13 -7 -20 -20 -20 -38 -1 -56 -20 -62 -63 -3 -23 -10 -43 -14 -43 -27 -5
-34 -2 -39 21 -9 36 -38 38 -42 3 -4 -41 -36 -43 -49 -4 -14 40 -39 41 -39 1
0 -25 -4 -30 -24 -30 -19 0 -26 7 -31 30 -5 21 -12 30 -27 30 -17 0 -19 -4
-13 -30 6 -27 4 -30 -19 -30 -24 0 -26 3 -26 45 l0 45 151 0 c134 0 150 2 139
15 -10 12 -43 15 -176 15 -98 0 -165 4 -169 10 -17 27 13 30 233 28 219 -3
227 -4 227 -23z m4374 -5 l214 0 -7 -32 c-3 -17 -9 -34 -12 -37 -8 -9 -370
-14 -430 -6 -50 6 -52 7 -56 41 -5 43 -1 47 42 40 19 -3 131 -6 249 -6z m901
-62 c25 -27 25 -40 0 -63 -17 -16 -20 -31 -20 -112 0 -76 -3 -93 -15 -93 -12
0 -15 17 -15 94 0 71 -4 97 -15 106 -20 16 -19 49 2 72 21 24 38 23 63 -4z
m350 -18 c26 -48 -25 -89 -63 -51 -18 17 -19 24 -9 46 14 31 56 34 72 5z
m-7009 0 c26 -15 26 -66 -1 -80 -49 -26 -87 43 -42 78 19 15 19 15 43 2z
m7196 -21 c19 -19 -7 -65 -37 -64 -19 0 -25 41 -10 61 15 17 32 18 47 3z m998
-5 c19 -19 16 -43 -7 -57 -21 -14 -48 7 -48 38 0 38 26 47 55 19z m-827 -26
c-3 -31 -6 -33 -44 -36 -52 -4 -94 12 -94 36 0 29 8 32 77 32 l64 0 -3 -32z
m734 3 c5 -35 -8 -41 -94 -41 l-58 0 0 35 0 35 74 0 74 0 4 -29z m-2174 -28
l-3 -38 -217 -3 -218 -2 0 33 c0 19 3 37 7 40 3 4 103 7 220 7 l214 0 -3 -37z
m-1740 -60 c58 -49 136 -113 173 -143 74 -61 462 -378 655 -535 717 -586 911
-748 941 -785 27 -33 3 -110 -35 -110 -9 0 -60 37 -112 81 -52 45 -151 127
-219 182 -68 56 -181 150 -250 208 -69 58 -187 154 -261 214 -74 60 -187 152
-250 205 -63 53 -162 135 -220 181 -117 94 -342 279 -463 380 l-79 67 -241
-199 c-133 -109 -330 -271 -437 -359 -107 -89 -238 -196 -290 -238 -52 -42
-167 -137 -255 -211 -367 -310 -591 -494 -614 -504 -20 -10 -26 -8 -42 12 -44
54 -21 87 181 258 96 81 201 168 233 193 41 32 59 53 63 75 3 17 4 138 2 268
l-3 237 162 0 162 0 3 -130 3 -130 91 77 c50 43 198 166 329 273 131 107 307
251 389 320 83 69 171 142 196 162 25 20 53 37 63 38 11 0 67 -39 125 -87z
m-3400 65 c18 -18 14 -53 -9 -74 -19 -17 -23 -17 -47 -3 -32 17 -39 50 -17 73
19 19 56 21 73 4z m3925 -81 l28 -30 -30 -31 c-17 -18 -31 -40 -31 -49 0 -27
-16 -20 -30 14 -8 18 -27 37 -46 47 -26 12 -31 18 -23 29 6 7 18 13 26 13 7 0
23 16 35 37 20 33 23 35 32 18 6 -11 24 -32 39 -48z m-1586 1 c29 -29 53 -56
53 -61 0 -12 -101 -117 -112 -117 -5 0 -33 26 -63 57 -52 55 -53 59 -37 78 34
41 87 93 97 94 5 1 33 -22 62 -51z m371 30 c16 -16 15 -53 -3 -68 -17 -14 -51
-5 -59 17 -13 32 3 53 45 62 3 0 10 -4 17 -11z m2399 -42 c15 -15 -23 -61 -71
-85 -87 -45 -211 -28 -278 36 -16 15 -28 35 -28 44 0 16 15 17 185 15 102 -1
188 -6 192 -10z m342 -12 c25 -32 27 -89 7 -139 -24 -56 -40 -44 -32 23 7 63
-6 118 -25 106 -8 -4 -7 -9 2 -15 8 -5 10 -9 4 -9 -5 0 -23 9 -40 20 -30 19
-28 23 20 33 38 9 44 7 64 -19z m664 -44 c3 -13 0 -20 -8 -20 -26 0 -44 12
-38 26 8 21 40 17 46 -6z m523 -21 c19 -21 19 -22 -31 -65 -55 -49 -65 -52
-89 -25 -22 24 -13 44 37 81 49 36 58 37 83 9z m558 -13 c43 -40 47 -73 11
-82 -43 -11 -125 65 -111 102 10 26 62 16 100 -20z m-6214 13 c76 -12 144 -46
195 -99 l36 -37 -27 -22 -27 -21 -42 39 c-101 93 -273 94 -378 1 -38 -34 -50
-39 -65 -31 -33 18 -33 39 -1 76 36 41 119 83 186 95 26 4 50 8 53 9 3 0 34
-4 70 -10z m542 -14 c8 -19 8 -31 0 -48 -7 -12 -13 -71 -14 -132 -3 -90 -6
-110 -18 -110 -12 0 -16 21 -18 115 -1 63 -7 119 -12 124 -14 14 -12 50 2 64
20 20 48 14 60 -13z m2923 3 c20 -19 -14 -28 -111 -28 -57 0 -104 -4 -104 -9
0 -37 12 -41 107 -41 85 0 94 -2 91 -17 -3 -16 -16 -18 -108 -17 l-105 1 -6
34 c-3 19 -10 44 -17 55 -6 12 -9 24 -6 27 8 8 251 3 259 -5z m1800 -48 c19
-21 15 -47 -10 -57 -26 -9 -42 13 -27 37 15 24 15 33 2 25 -5 -3 -10 -1 -10 4
0 18 26 12 45 -9z m-5687 -12 c9 -9 12 -126 12 -467 0 -409 -2 -456 -17 -473
-15 -17 -51 -18 -729 -18 l-713 0 -15 22 c-14 20 -16 81 -16 467 0 400 2 446
17 463 15 17 51 18 733 18 543 0 719 -3 728 -12z m6225 -30 c15 -12 13 -18
-16 -73 -27 -51 -36 -60 -57 -57 -43 5 -46 18 -15 82 30 63 52 75 88 48z m238
-44 c19 -53 24 -94 12 -94 -5 0 -17 -3 -29 -6 -17 -5 -24 2 -41 43 -37 86 -37
90 -6 101 40 15 45 11 64 -44z m-3693 -23 c86 -73 236 -196 342 -281 58 -46
132 -107 165 -135 33 -29 121 -101 195 -162 74 -60 254 -208 401 -329 146
-120 293 -241 326 -269 l62 -50 0 -1055 1 -1055 101 2 c56 1 108 -1 115 -4 11
-4 14 -29 14 -102 0 -53 -3 -106 -6 -118 l-6 -23 -1764 0 -1764 0 0 119 0 120
34 6 c18 4 86 5 150 3 l116 -3 0 1085 0 1085 232 190 c127 105 245 202 262
216 302 255 966 799 974 799 2 0 24 -18 50 -39z m4082 -6 l5 -40 18 25 c14 20
20 23 35 14 25 -16 28 -44 4 -44 -25 0 -51 -28 -31 -34 56 -17 58 -20 35 -52
-14 -19 -15 -19 -40 5 -14 14 -26 20 -27 15 0 -5 -2 -22 -2 -39 -2 -23 -7 -30
-22 -30 -17 0 -20 6 -18 38 3 43 -10 48 -33 11 -14 -21 -19 -23 -30 -12 -7 7
-14 22 -16 33 -2 15 2 19 18 17 32 -4 39 26 9 38 -29 11 -34 47 -8 57 11 4 22
-1 31 -15 22 -33 35 -27 28 11 -7 37 0 49 24 45 9 -2 17 -18 20 -43z m-6372
-1 c46 -23 92 -65 92 -84 0 -3 -10 -12 -23 -19 -21 -11 -30 -9 -73 19 -86 53
-166 50 -232 -10 -32 -28 -35 -28 -58 -13 -32 21 -30 36 9 69 82 70 192 84
285 38z m3267 5 c14 -6 4 -8 -34 -5 -29 3 -56 7 -59 10 -9 10 71 5 93 -5z
m-2142 -46 l217 -6 0 -74 0 -73 -310 0 -310 0 0 74 c0 50 4 76 13 79 18 8 144
8 390 0z m2245 -21 c3 -10 -18 -12 -97 -11 -80 1 -101 4 -101 16 0 19 191 15
198 -5z m542 -27 c0 -7 -8 -12 -17 -11 -24 4 -27 21 -3 23 11 1 20 -4 20 -12z
m820 -32 c0 -48 11 -65 52 -79 31 -11 35 -10 70 23 l36 35 31 -18 c41 -24 44
-36 19 -82 l-22 -39 22 -28 c12 -15 22 -34 22 -41 0 -18 12 -18 57 1 49 21 51
20 68 -22 21 -49 14 -61 -40 -75 l-46 -12 3 -49 c3 -49 4 -50 48 -66 41 -15
45 -20 42 -46 -7 -58 -16 -65 -68 -49 -63 19 -61 19 -84 -25 l-20 -40 27 -31
26 -32 -36 -36 -37 -36 -42 41 c-42 39 -44 40 -78 29 -32 -12 -36 -17 -45 -67
l-11 -54 -47 -3 -47 -3 0 38 c0 67 -8 81 -50 88 -35 6 -41 3 -73 -32 l-35 -38
-28 21 c-45 33 -50 47 -25 81 l23 30 -21 42 c-23 44 -30 45 -100 19 -31 -11
-41 -1 -44 47 -2 38 0 40 41 54 l42 15 0 52 0 52 -45 11 c-42 10 -45 14 -45
44 0 48 12 61 51 54 19 -3 41 -8 50 -12 11 -4 24 6 42 34 32 49 33 62 7 86
-27 25 -25 39 11 69 40 34 51 33 86 -9 27 -33 29 -34 66 -22 27 9 37 17 37 33
0 12 3 36 6 53 6 30 9 31 55 31 l49 0 0 -37z m-1100 8 c5 -11 7 -28 3 -38 -6
-16 -5 -16 11 -4 20 16 31 8 40 -31 5 -21 3 -28 -9 -28 -17 0 -20 -21 -4 -37
8 -8 6 -18 -6 -37 -17 -25 -18 -25 -45 -9 -26 15 -29 15 -45 0 -19 -20 -27
-21 -42 -6 -8 8 -8 20 0 42 8 23 7 32 -1 35 -7 2 -12 21 -12 43 0 48 23 63 46
30 9 -12 20 -18 26 -15 7 4 5 10 -6 16 -16 9 -22 39 -9 51 13 14 43 7 53 -12z
m-300 -6 c0 -9 -8 -19 -17 -22 -10 -4 -24 -13 -31 -20 -19 -18 -46 -17 -38 2
3 8 1 15 -4 15 -6 0 -10 9 -10 20 0 17 7 20 50 20 38 0 50 -4 50 -15z m-3373
-30 c31 -31 35 -40 30 -72 -17 -101 -145 -123 -192 -32 -21 40 -12 82 27 114
44 37 91 34 135 -10z m3955 -131 c-3 -79 -1 -108 8 -114 11 -7 10 -19 -4 -64
-19 -61 -30 -63 -52 -10 -18 43 -18 74 0 74 20 0 23 14 25 107 1 48 -2 84 -8
88 -19 11 -12 25 12 25 22 0 22 -1 19 -106z m285 46 c15 -23 -3 -41 -19 -19
-7 10 -8 9 -4 -6 3 -11 -1 -31 -9 -45 -17 -30 -20 -18 -4 13 10 19 9 20 -2 9
-8 -7 -14 -25 -15 -40 -4 -87 -15 -99 -99 -104 -34 -3 -40 -7 -43 -28 -2 -14
-8 -29 -12 -34 -11 -12 -22 32 -16 64 2 14 5 29 5 35 1 5 6 4 13 -3 7 -7 33
-12 59 -12 l46 0 6 41 c6 49 54 149 70 149 7 0 18 -9 24 -20z m1893 -27 c26
-27 61 -58 79 -71 32 -24 34 -42 3 -37 -9 1 -11 0 -4 -2 7 -3 12 -24 12 -58 0
-29 3 -60 6 -69 5 -14 -11 -16 -146 -16 l-152 0 6 23 c3 12 6 43 6 70 l0 47
48 1 47 2 -50 7 c-27 4 -53 5 -57 3 -5 -2 -8 2 -8 10 0 8 11 18 25 21 14 4 49
31 78 61 28 30 54 54 56 55 3 0 26 -21 51 -47z m-5836 -9 c31 -12 16 -74 -18
-74 -26 0 -46 18 -46 40 0 32 30 47 64 34z m210 -102 c2 -92 0 -102 -16 -102
-16 0 -18 10 -18 98 0 54 3 102 7 106 18 18 26 -9 27 -102z m4966 -12 c0 -24
6 -33 26 -40 44 -17 64 -13 64 14 0 21 5 24 40 24 22 0 42 -3 45 -9 4 -5 11
-9 18 -9 8 0 8 3 -1 12 -21 21 -13 38 18 38 27 0 30 -3 30 -30 0 -19 7 -33 20
-40 18 -9 20 -21 20 -98 0 -55 -4 -92 -12 -100 -8 -8 -64 -12 -184 -12 l-172
0 -5 27 c-3 15 -3 61 0 101 6 70 7 75 35 84 22 8 28 16 28 39 0 19 5 29 15 29
10 0 15 -10 15 -30z m1040 -154 c0 -61 5 -93 17 -114 16 -28 16 -31 0 -55 -12
-19 -17 -48 -17 -102 0 -57 -3 -76 -12 -73 -8 3 -15 32 -18 79 -3 47 -11 83
-23 100 -17 25 -17 27 4 53 20 25 21 36 16 112 -4 78 -3 84 14 84 17 0 19 -8
19 -84z m-6718 47 c22 -19 24 -59 3 -70 -10 -6 -15 -32 -17 -96 -4 -113 -22
-119 -26 -7 -2 51 -8 90 -16 100 -25 29 -26 38 -5 64 24 30 36 32 61 9z m3888
-57 c0 -12 -30 -46 -41 -46 -5 0 -17 10 -29 22 l-20 22 27 28 27 29 18 -23
c10 -13 18 -27 18 -32z m-3513 21 c18 -19 -19 -27 -118 -27 -88 0 -109 3 -109
14 0 10 15 16 48 19 57 5 171 1 179 -6z m273 -7 c0 -19 -7 -20 -100 -20 -80 0
-100 3 -100 14 0 16 32 21 138 24 56 2 62 0 62 -18z m5629 -4 c-2 -2 -20 -11
-39 -20 l-35 -17 25 20 c14 11 31 21 39 21 8 0 12 -2 10 -4z m306 -136 c0 -12
-16 -16 -72 -18 -68 -3 -73 -2 -73 18 0 20 5 21 73 18 56 -2 72 -6 72 -18z
m-6094 -16 c18 -17 20 -28 17 -100 -3 -92 -25 -135 -90 -180 -42 -30 -63 -27
-99 14 -13 15 -20 24 -15 20 13 -11 35 10 53 51 l15 36 10 -28 c11 -30 52 -47
70 -29 12 12 25 122 15 122 -4 0 -23 -8 -42 -17 -36 -17 -37 -17 -91 11 -55
29 -91 29 -80 0 3 -8 2 -12 -4 -9 -6 3 -10 29 -10 56 0 46 2 51 30 63 17 7 65
11 115 10 68 -1 90 -5 106 -20z m3829 -24 c0 -5 6 -7 13 -4 7 2 20 -3 29 -13
18 -20 28 -115 13 -123 -6 -3 -11 13 -13 38 -2 23 -8 42 -14 42 -7 0 -9 -15
-5 -40 4 -35 2 -40 -14 -40 -15 0 -19 7 -19 34 0 19 -5 38 -11 41 -17 11 -21
-1 -11 -38 8 -27 7 -37 -3 -41 -20 -7 -25 3 -25 58 0 37 5 55 22 73 23 24 38
30 38 13z m-3585 -33 c21 -16 15 -61 -11 -71 -39 -15 -73 41 -42 72 16 16 30
15 53 -1z m-743 -99 c3 -71 4 -73 31 -76 15 -2 27 -5 27 -8 0 -2 -16 -27 -36
-54 -41 -57 -45 -56 -95 16 l-28 42 28 5 c32 7 41 27 41 100 0 34 4 47 15 47
11 0 15 -17 17 -72z m5486 -15 c4 -27 -22 -47 -53 -39 -30 8 -34 45 -9 71 14
14 19 14 38 2 11 -8 22 -23 24 -34z m1054 8 l33 -29 1 -431 2 -430 33 -43 c19
-24 60 -74 92 -111 54 -64 66 -92 40 -92 -11 0 -162 168 -190 212 -9 13 -19
23 -24 23 -5 0 -41 -43 -81 -95 l-73 -95 -313 0 c-343 0 -364 3 -379 58 -5 15
-8 222 -8 460 l0 434 33 29 32 29 336 0 c351 0 382 -3 398 -45 3 -9 6 -173 6
-363 1 -307 2 -345 15 -328 13 17 15 76 15 358 l0 338 -29 32 -29 33 -356 3
c-397 3 -404 2 -432 -63 -22 -52 -21 -903 1 -945 30 -58 41 -60 407 -59 l333
0 59 80 c65 89 59 89 127 8 l40 -48 -26 -51 c-47 -93 -28 -90 -516 -90 -422 0
-427 0 -454 22 -55 43 -55 43 -55 610 0 478 2 526 18 558 9 19 28 40 42 47 19
10 130 13 447 13 l423 0 32 -29z m318 -90 c0 -15 -10 -21 -41 -26 -44 -8 -66
4 -56 29 5 11 20 16 52 16 38 0 45 -3 45 -19z m-39 -66 c4 -45 1 -65 -10 -65
-10 0 -19 50 -13 68 5 17 22 15 23 -3z m-7468 -14 c3 -11 2 -22 -1 -25 -3 -3
-142 -6 -309 -6 l-303 0 0 25 0 25 304 0 c292 0 304 -1 309 -19z m6122 -1 c8
-26 -1 -40 -26 -40 -22 0 -34 22 -25 45 8 22 44 18 51 -5z m-784 0 c11 -6 19
-21 19 -35 0 -23 -23 -55 -40 -55 -15 0 -40 31 -40 50 0 17 24 50 36 50 3 0
14 -5 25 -10z m542 -27 c-13 -2 -35 -2 -50 0 -16 2 -5 4 22 4 28 0 40 -2 28
-4z m-7002 -83 c22 -12 25 -52 5 -69 -18 -15 -12 -130 9 -171 15 -29 15 -33
-1 -58 -13 -19 -18 -43 -16 -82 2 -51 -10 -92 -22 -79 -3 3 -6 34 -8 70 -1 43
-8 72 -20 88 -23 30 -23 42 2 74 25 31 29 144 6 153 -23 9 -28 35 -11 60 17
27 27 29 56 14z m6737 -27 c2 -24 -2 -34 -17 -43 -28 -15 -61 3 -61 33 0 31
20 48 50 45 20 -2 26 -9 28 -35z m1850 18 c18 -11 11 -56 -8 -56 -10 0 -16 12
-18 33 -3 33 3 38 26 23z m-8521 -33 c-3 -8 -6 -5 -6 6 -1 11 2 17 5 13 3 -3
4 -12 1 -19z m183 7 c0 -10 -11 -15 -35 -15 -24 0 -35 5 -35 15 0 10 11 15 35
15 24 0 35 -5 35 -15z m190 5 c0 -13 -34 -30 -59 -30 -14 0 -21 6 -21 20 0 17
7 20 40 20 22 0 40 -4 40 -10z m170 -10 c0 -16 -7 -20 -34 -20 -19 0 -38 5
-41 10 -11 18 5 30 41 30 27 0 34 -4 34 -20z m180 5 c0 -10 -11 -15 -35 -15
-24 0 -35 5 -35 15 0 10 11 15 35 15 24 0 35 -5 35 -15z m190 11 c0 -20 -16
-36 -36 -36 -13 0 -24 2 -24 4 0 2 -3 11 -6 20 -5 13 1 16 30 16 20 0 36 -2
36 -4z m180 -10 c0 -16 -41 -29 -64 -20 -33 13 -17 34 24 34 28 0 40 -4 40
-14z m189 -3 c0 -10 -3 -13 -5 -6 -3 6 -16 9 -30 7 -16 -3 -23 -1 -19 6 11 18
55 12 54 -7z m5885 -29 c27 -10 14 -74 -15 -74 -10 0 -39 30 -39 40 0 8 28 40
35 40 2 0 10 -3 19 -6z m-5800 -48 c-4 -11 -28 -15 -84 -18 -43 -2 -77 -1 -74
1 2 2 -1 10 -7 18 -9 11 5 13 79 13 75 0 90 -3 86 -14z m276 -1 c0 -13 -14
-15 -87 -13 -58 2 -88 7 -91 16 -3 9 19 12 87 12 75 0 91 -3 91 -15z m5250
-32 c0 -9 -32 -43 -40 -43 -4 0 -5 11 -2 25 3 16 11 25 23 25 11 0 19 -3 19
-7z m-5698 -53 c2 -22 0 -40 -4 -40 -5 0 -8 18 -8 40 0 22 2 40 4 40 2 0 6
-18 8 -40z m7356 15 c9 -20 9 -30 0 -45 -19 -30 -35 -31 -65 -6 -24 21 -26 26
-15 50 16 36 64 37 80 1z m-6618 -51 c94 -102 127 -258 78 -366 -23 -50 -82
-128 -97 -128 -3 0 -5 55 -3 122 5 161 -6 288 -23 288 -21 0 -25 -35 -25 -228
l0 -182 -23 14 c-33 22 -85 114 -98 175 -20 97 19 225 98 311 19 22 39 40 43
40 4 0 26 -21 50 -46z m4511 -30 c41 -41 54 -47 98 -52 67 -6 65 -22 -2 -22
-51 0 -56 -2 -104 -51 l-51 -51 -49 51 c-39 40 -56 51 -81 51 -39 0 -42 16 -4
25 15 3 50 26 77 50 28 25 54 45 60 45 5 0 31 -21 56 -46z m-5501 16 c6 -9 10
-244 10 -587 0 -506 -2 -573 -16 -587 -13 -14 -60 -16 -358 -16 -253 0 -345 3
-354 12 -9 9 -12 153 -12 588 0 316 4 580 8 586 4 6 14 14 22 17 8 3 167 5
353 4 288 -2 339 -4 347 -17z m6235 -31 c12 -19 -4 -59 -25 -59 -25 0 -41 29
-29 52 11 20 44 24 54 7z m-295 -94 c0 -81 1 -85 23 -85 39 0 67 -12 67 -28 0
-12 -9 -14 -52 -9 -28 4 -55 12 -60 19 -4 7 -8 52 -8 101 0 71 3 87 15 87 12
0 15 -16 15 -85z m-5412 53 c20 -20 14 -56 -13 -74 -27 -18 -46 -10 -65 26
-21 39 46 80 78 48z m4590 -13 c-20 -7 -46 -11 -58 -8 -32 8 -7 19 48 21 l47
1 -37 -14z m-122 -160 l-14 -50 -1 65 c-1 36 -5 71 -10 79 -6 9 -2 22 13 38
l21 25 3 -54 c1 -29 -4 -75 -12 -103z m-4736 -46 c0 -84 -3 -110 -12 -107 -9
3 -14 35 -16 103 -3 103 1 130 18 120 6 -4 10 -53 10 -116z m5968 62 c21 -13
11 -55 -15 -59 -30 -4 -49 31 -27 52 18 18 24 19 42 7z m-543 -146 c48 -14 99
-32 114 -40 25 -13 30 -12 49 7 20 20 22 20 47 4 40 -26 42 -45 9 -71 l-29
-23 78 -75 c78 -75 89 -95 62 -117 -13 -10 -20 -8 -43 15 -52 53 -167 134
-242 169 -64 31 -84 36 -147 36 -47 0 -90 -7 -121 -18 -54 -21 -187 -106 -244
-158 -53 -47 -76 -58 -94 -43 -8 6 -14 15 -14 19 0 4 36 44 81 88 l80 81 -25
22 c-33 29 -33 52 0 74 24 16 27 16 45 -1 19 -17 24 -16 122 18 124 43 160 45
272 13z m-6587 -42 c13 -27 14 -37 5 -40 -7 -3 -13 -20 -13 -38 0 -20 -6 -35
-15 -39 -12 -4 -15 3 -15 29 0 20 -6 37 -15 42 -13 8 -12 13 2 46 10 20 21 37
25 37 5 0 16 -16 26 -37z m1566 -15 c157 -52 263 -187 254 -323 l-3 -46 -115
111 c-137 132 -199 185 -206 177 -19 -19 41 -88 224 -258 101 -95 102 -96 102
-142 0 -26 -3 -47 -6 -47 -24 0 -132 35 -169 55 -154 81 -225 203 -225 385 0
112 5 122 49 114 20 -3 63 -15 95 -26z m702 -3 c3 -20 4 -75 2 -123 -9 -186
-115 -319 -299 -377 -44 -14 -84 -25 -90 -25 -5 0 -9 24 -9 54 l0 53 109 96
c167 148 252 247 212 247 -9 0 -225 -195 -275 -249 -17 -17 -33 -31 -38 -31
-14 0 -9 105 8 154 21 60 106 149 171 178 52 24 158 56 185 57 12 1 19 -10 24
-34z m4872 -7 c18 -18 15 -43 -9 -64 -15 -13 -24 -16 -36 -8 -32 20 -38 41
-19 63 21 24 46 27 64 9z m-581 -80 c141 -62 165 -224 48 -326 -45 -40 -74
-52 -127 -52 -138 0 -232 101 -214 230 13 90 102 160 207 160 32 0 71 -5 86
-12z m-5397 -98 c0 -77 -2 -90 -16 -90 -15 0 -16 9 -10 75 12 134 26 142 26
15z m5699 -102 c1 -8 -149 -117 -161 -118 -4 0 2 21 13 48 17 38 20 60 16 114
l-6 67 69 -52 c38 -29 69 -55 69 -59z m1499 -11 c2 -100 0 -117 -13 -117 -13
0 -15 19 -15 121 0 92 3 120 13 117 8 -3 13 -39 15 -121z m-2146 61 c-3 -36 2
-72 15 -110 l20 -57 -21 11 c-34 18 -125 92 -126 103 0 10 99 104 111 105 3 0
4 -24 1 -52z m-151 -84 c16 -19 139 -103 188 -129 99 -50 238 -68 336 -41 93
24 217 93 288 160 31 29 38 31 55 14 29 -29 -109 -164 -221 -217 -212 -100
-441 -57 -619 117 -77 74 -90 96 -65 105 20 9 24 8 38 -9z m-4636 -226 c2 -2
6 -21 10 -42 8 -38 7 -39 -19 -34 l-26 5 0 -73 0 -74 -107 0 -108 0 5 82 5 83
110 2 c98 2 110 4 110 20 0 16 -10 18 -97 17 -93 0 -97 -1 -132 -32 -20 -18
-41 -32 -46 -32 -21 0 -8 26 27 58 l38 33 113 -5 c63 -2 115 -6 117 -8z m4485
-98 c0 -91 -3 -110 -15 -110 -12 0 -15 19 -15 110 0 91 3 110 15 110 12 0 15
-19 15 -110z m2025 81 c96 -43 178 -130 217 -233 l18 -48 -49 0 c-54 0 -111
-17 -111 -33 0 -6 -11 -1 -24 12 -36 34 -124 34 -159 -2 l-23 -22 -33 22 c-46
31 -127 32 -165 2 -14 -11 -26 -16 -26 -11 0 19 -59 34 -119 30 -34 -1 -61 0
-61 4 0 26 44 116 74 152 45 55 132 114 205 138 73 24 188 19 256 -11z m-627
-11 c18 -30 -1 -60 -38 -60 -23 0 -31 5 -36 25 -12 49 48 77 74 35z m-142 -74
c-3 -16 -7 -43 -7 -60 l-1 -31 -8 30 c-4 17 -8 53 -8 80 -1 47 0 49 14 30 10
-13 13 -31 10 -49z m-5286 -131 c0 -68 -2 -75 -20 -75 -18 0 -20 7 -20 75 0
68 2 75 20 75 18 0 20 -7 20 -75z m415 35 c17 -18 17 -21 1 -45 -9 -14 -21
-25 -27 -25 -24 0 -49 22 -49 43 0 46 43 62 75 27z m4581 -41 l33 -32 -31 -38
-30 -38 -34 33 c-19 18 -34 37 -34 41 0 10 51 65 59 65 3 0 20 -14 37 -31z
m-396 -34 c0 -8 -9 -19 -21 -25 -37 -21 -69 28 -32 49 21 11 53 -3 53 -24z
m680 26 c0 -35 -13 -41 -91 -41 -65 0 -79 3 -79 16 0 13 13 15 78 13 53 -1 76
2 75 10 -2 6 2 11 7 11 6 0 10 -4 10 -9z m-842 -15 c12 -12 -14 -26 -49 -26
-33 0 -39 3 -39 21 0 19 4 20 42 15 22 -3 43 -8 46 -10z m-204 -11 c-5 -12
-25 -15 -90 -15 -68 0 -84 3 -84 15 0 12 17 15 90 15 75 0 88 -2 84 -15z m466
0 c0 -9 -9 -15 -25 -15 -16 0 -25 6 -25 15 0 9 9 15 25 15 16 0 25 -6 25 -15z
m90 0 c0 -9 -9 -15 -25 -15 -24 0 -32 10 -18 23 12 13 43 7 43 -8z m-5045 -26
c11 -17 -3 -56 -22 -64 -26 -9 -56 30 -43 56 11 20 54 26 65 8z m-1087 -53
c31 -16 74 -61 91 -93 18 -34 13 -110 -9 -153 -11 -22 -38 -52 -60 -66 -39
-26 -40 -28 -40 -85 0 -33 -4 -59 -10 -59 -5 0 -10 24 -10 54 0 30 -4 58 -10
61 -6 4 -10 -17 -10 -54 0 -45 -4 -61 -14 -61 -9 0 -16 19 -20 60 -4 33 -11
60 -16 60 -6 0 -7 -25 -3 -60 4 -42 2 -60 -6 -60 -7 0 -11 21 -11 59 0 57 -1
60 -35 81 -112 69 -112 244 0 307 47 26 122 30 163 9z m1568 -48 c27 -29 69
-75 93 -101 l43 -49 -33 -28 c-19 -16 -41 -29 -50 -30 -9 0 -56 41 -104 91
l-88 91 39 39 c21 21 41 38 44 39 3 0 28 -24 56 -52z m5788 -24 c3 -9 6 -29 6
-45 0 -35 -42 -79 -75 -79 -27 0 -75 36 -75 56 0 23 29 29 44 9 22 -30 50 -15
60 33 9 42 29 55 40 26z m-1534 -29 c0 -17 -11 -30 -42 -47 -35 -19 -44 -29
-46 -56 -4 -35 -22 -45 -22 -11 0 18 -8 14 -55 -26 -30 -26 -55 -46 -56 -44
-14 72 -18 168 -8 175 16 9 212 42 222 37 4 -2 7 -15 7 -28z m215 5 c-3 -5
-17 -10 -31 -10 -13 0 -24 5 -24 10 0 6 14 10 31 10 17 0 28 -4 24 -10z
m-5439 -65 c58 -34 80 -75 168 -311 99 -267 148 -396 181 -477 25 -61 26 -73
16 -106 -34 -114 -1 -237 87 -333 99 -107 667 -583 914 -766 121 -90 143 -101
164 -80 22 21 7 42 -70 98 -88 64 -346 273 -520 419 -82 70 -197 166 -255 215
-152 126 -208 184 -236 240 -28 56 -33 132 -14 197 38 124 202 196 324 140 23
-10 87 -56 145 -102 320 -259 622 -491 693 -533 27 -15 104 -48 170 -73 223
-82 344 -153 480 -282 203 -193 300 -395 329 -686 13 -136 0 -294 -40 -475
l-28 -125 -522 0 -522 0 -34 98 c-42 121 -108 232 -206 345 -121 139 -360 352
-587 523 -122 92 -154 132 -223 274 -135 278 -556 1280 -626 1492 -42 125 -46
190 -16 250 43 83 142 108 228 58z m6194 10 c79 -41 107 -134 75 -253 -61
-227 -558 -1414 -681 -1625 -58 -100 -77 -121 -208 -221 -250 -193 -528 -451
-631 -586 -61 -80 -137 -227 -160 -308 l-18 -62 -518 0 -518 0 -11 38 c-6 20
-22 93 -37 162 -23 107 -27 149 -27 290 0 146 3 178 27 274 51 204 143 361
302 515 88 85 208 172 300 219 22 11 91 38 154 61 62 23 136 53 163 67 59 30
215 147 517 389 318 255 318 255 356 271 71 29 187 11 245 -38 66 -56 100
-158 81 -243 -17 -77 -57 -132 -157 -216 -282 -237 -477 -398 -701 -578 -250
-200 -280 -231 -237 -248 23 -9 43 5 265 180 409 323 684 552 795 663 95 95
130 213 99 336 -16 64 -16 64 11 123 29 67 170 434 216 565 66 185 115 240
215 240 30 0 67 -7 83 -15z m-5844 -38 c80 -47 105 -94 174 -332 28 -99 62
-210 75 -246 l24 -66 -42 -13 c-63 -20 -99 -39 -133 -71 l-31 -30 -96 253
c-156 409 -163 432 -148 462 26 48 126 73 177 43z m5471 -12 c25 -15 43 -33
43 -43 0 -31 -163 -484 -232 -644 l-20 -47 -46 34 c-40 31 -73 45 -137 57 -12
3 -18 10 -16 19 12 42 116 386 138 458 51 165 158 231 270 166z m-4675 -112
c-2 -35 -8 -63 -12 -63 -13 0 -93 64 -98 78 -7 22 26 13 46 -13 25 -32 32 -31
32 2 0 22 28 70 35 61 1 -2 0 -31 -3 -65z m5697 -34 c18 -15 21 -23 13 -31 -9
-9 -12 -8 -12 6 0 9 -3 15 -7 13 -5 -3 -17 4 -27 14 -27 27 1 25 33 -2z m-35
-24 c3 -8 1 -15 -4 -15 -6 0 -10 7 -10 15 0 8 2 15 4 15 2 0 6 -7 10 -15z
m-149 -61 c-25 -18 -55 -18 -55 1 0 22 31 35 54 23 19 -10 19 -11 1 -24z m179
25 c-6 -11 -31 -12 -37 -1 -3 4 6 8 19 8 13 1 21 -2 18 -7z m-6077 -20 c66
-25 97 -75 166 -274 26 -71 68 -185 95 -251 l48 -122 -105 89 c-103 88 -204
149 -245 149 -19 0 -28 20 -74 158 -29 86 -52 166 -52 178 0 60 93 101 167 73z
m4610 0 c15 -6 38 -20 51 -32 28 -26 24 -48 -30 -201 -22 -61 -45 -125 -50
-143 -9 -27 -19 -33 -69 -47 -65 -19 -147 -76 -249 -173 -35 -34 -65 -61 -67
-59 -1 1 19 54 46 117 26 63 72 182 101 264 77 220 91 244 167 271 47 16 64
17 100 3z m1103 -9 c0 -5 13 -2 30 6 34 17 57 9 89 -32 28 -36 26 -66 -5 -103
-29 -35 -66 -40 -102 -15 -36 25 -44 49 -32 95 8 31 8 44 -1 55 -10 12 -9 13
5 8 9 -3 16 -10 16 -14z m-1550 -10 c15 -15 17 -25 11 -42 -11 -30 -60 -37
-78 -12 -17 24 -17 30 7 54 25 25 35 25 60 0z m-5420 -139 c7 -15 5 -24 -8
-41 -32 -40 -85 -4 -62 41 14 25 56 25 70 0z m114 -3 c8 -13 6 -22 -8 -37 -25
-28 -42 -26 -62 4 -13 21 -14 28 -4 41 17 19 60 15 74 -8z m6767 -228 c28 -16
25 -58 -6 -72 -45 -20 -73 25 -38 64 19 21 19 21 44 8z m128 -18 c11 -20 -10
-62 -31 -62 -18 0 -48 32 -48 51 0 32 63 40 79 11z m-2423 -322 c12 -29 25
-43 50 -52 42 -15 42 -20 4 -35 -16 -6 -39 -27 -51 -47 -11 -20 -24 -36 -28
-36 -4 0 -12 13 -18 30 -6 16 -28 39 -48 51 l-37 22 36 19 c22 11 43 33 53 53
9 19 18 35 20 35 2 0 10 -18 19 -40z m-638 4 c4 -29 -23 -51 -43 -34 -16 13
-20 42 -8 54 14 14 48 1 51 -20z m-1453 -4 c13 -40 -38 -68 -64 -36 -9 11 -10
20 -1 35 14 28 56 28 65 1z m2550 7 c23 -18 14 -63 -16 -72 -41 -13 -64 32
-32 67 19 22 24 22 48 5z m-1458 -36 c26 -11 65 -26 85 -35 l37 -16 -39 -40
c-22 -22 -46 -40 -55 -40 -8 0 -15 -5 -15 -12 0 -6 -13 0 -28 15 -15 15 -33
27 -38 27 -6 0 -19 10 -30 22 l-19 22 27 -17 c26 -16 27 -16 33 14 13 59 -32
64 -93 11 -21 -18 -29 -31 -22 -38 6 -6 5 -17 -5 -31 -14 -20 -17 -21 -43 -7
-15 7 -33 14 -39 14 -24 0 -13 25 20 47 41 28 148 82 164 82 7 1 34 -8 60 -18z
m-652 -56 c44 -30 83 -56 88 -58 4 -1 -2 -45 -15 -97 l-24 -95 -129 0 -129 0
-27 95 c-15 52 -24 96 -21 98 4 1 43 26 87 56 44 29 83 54 86 55 3 0 41 -24
84 -54z m-815 5 c0 -29 -35 -44 -54 -24 -9 8 -16 19 -16 24 0 5 7 16 16 24 19
20 54 5 54 -24z m1360 -30 c0 -5 -4 -10 -10 -10 -5 0 -10 5 -10 10 0 6 5 10
10 10 6 0 10 -4 10 -10z m709 -21 c8 -23 8 -36 0 -45 -6 -7 -10 -23 -9 -36 4
-39 1 -48 -15 -42 -10 4 -15 20 -15 44 0 21 -5 40 -12 42 -15 5 11 68 28 68 7
0 17 -14 23 -31z m-440 -68 c25 -78 26 -85 4 -111 -24 -27 -30 -25 -37 13 -4
17 -18 43 -32 56 -16 16 -23 30 -18 40 4 9 7 24 8 34 1 26 13 20 21 -10 9 -36
58 -119 62 -106 2 6 -7 38 -21 72 -26 60 -34 104 -17 86 4 -6 18 -39 30 -74z
m-234 43 c41 -27 57 -59 43 -89 -21 -47 -52 -44 -142 17 -7 4 4 23 29 48 21
22 41 40 42 40 2 0 14 -7 28 -16z m-154 -15 c22 -11 18 -23 -12 -39 -17 -10
-19 -7 -19 20 0 33 2 35 31 19z m-54 -111 c-2 -13 -4 -3 -4 22 0 25 2 35 4 23
2 -13 2 -33 0 -45z m303 53 c0 -5 -6 -14 -14 -20 -12 -10 -13 -8 -9 8 5 21 23
30 23 12z m-162 -54 c34 -23 41 -32 31 -43 -22 -26 -48 -16 -66 26 -10 22 -24
40 -31 40 -7 0 -10 5 -7 10 7 11 8 10 73 -33z m220 12 c2 -9 -8 -29 -21 -45
l-24 -28 -12 37 c-7 20 -9 41 -6 47 10 17 59 7 63 -11z m-268 -58 c13 -28 29
-51 35 -51 7 0 23 10 37 23 19 17 31 21 54 16 38 -7 54 -17 54 -31 0 -16 -63
-97 -75 -97 -10 0 -127 107 -160 147 -18 22 -18 23 1 36 24 18 25 17 54 -43z
m193 14 c19 -39 13 -43 -22 -16 -16 12 -22 24 -18 35 10 25 22 19 40 -19z
m117 -46 c0 -10 -9 -21 -21 -24 -12 -4 -37 -18 -56 -31 -49 -33 -78 -32 -40 1
15 14 35 25 43 25 8 0 13 3 12 8 -1 4 6 19 16 35 15 21 21 25 32 16 8 -6 14
-20 14 -30z m-10 -43 c0 -7 -66 -46 -76 -46 -5 0 9 12 31 25 42 26 45 28 45
21z m-5187 -1983 c-13 -2 -33 -2 -45 0 -13 2 -3 4 22 4 25 0 35 -2 23 -4z"/>
<path d="M5130 9696 l0 -64 -32 -7 c-18 -4 -50 -16 -70 -26 -32 -16 -38 -17
-38 -5 0 20 -58 86 -76 86 -24 0 -15 -29 23 -70 l36 -41 -39 -42 c-21 -23 -40
-44 -42 -46 -1 -2 -12 5 -25 16 -31 29 -66 45 -83 39 -25 -10 -15 -25 40 -61
l54 -36 -13 -42 -12 -42 -67 -3 c-56 -2 -66 -6 -66 -21 0 -24 19 -31 85 -31
51 0 53 -1 59 -31 10 -50 8 -52 -39 -82 -25 -16 -45 -35 -45 -43 0 -22 38 -16
74 11 l33 25 40 -44 41 -45 -30 -28 c-42 -40 -51 -58 -33 -73 15 -12 41 7 76
58 l16 22 44 -20 c24 -11 57 -20 72 -20 26 0 28 -2 21 -35 -10 -55 3 -105 28
-105 19 0 20 5 16 70 -3 53 0 70 9 70 8 0 39 9 70 20 l57 20 30 -37 c17 -20
36 -43 42 -51 8 -12 12 -11 23 2 12 14 9 22 -14 57 -16 22 -32 42 -37 45 -7 4
18 46 53 87 4 5 25 -3 47 -18 41 -27 77 -30 77 -8 0 7 -21 26 -47 42 -48 30
-54 43 -42 89 5 18 13 22 44 22 65 0 100 11 100 31 0 15 -10 19 -66 21 l-67 3
-12 42 -13 42 55 36 c51 34 54 38 39 53 -14 15 -19 13 -62 -16 l-46 -33 -34
38 c-18 21 -33 44 -34 52 0 7 16 31 35 53 20 21 33 43 30 48 -13 21 -44 8 -67
-27 -13 -20 -25 -40 -28 -45 -3 -4 -29 1 -58 12 -29 11 -60 20 -70 20 -16 0
-17 8 -14 65 4 64 4 65 -22 65 -25 0 -26 -2 -26 -64z m87 -121 c65 -19 144
-89 168 -147 49 -120 -6 -268 -120 -323 -109 -54 -245 -19 -316 80 -102 142
-30 336 144 391 55 17 64 17 124 -1z"/>
<path d="M4220 9774 c0 -3 24 -52 54 -109 l53 -104 47 97 c25 53 46 103 46
110 0 9 -27 12 -100 12 -55 0 -100 -3 -100 -6z"/>
<path d="M3144 9521 c-2 -2 -4 -22 -4 -43 l0 -38 76 0 75 0 -3 43 -3 42 -68 0
c-38 0 -70 -2 -73 -4z"/>
<path d="M7657 9173 c-2 -5 -7 -21 -11 -38 -4 -16 -9 -38 -12 -47 -4 -14 1
-18 19 -18 23 0 25 4 25 50 0 46 -10 72 -21 53z"/>
<path d="M7709 9155 c-11 -16 -8 -68 3 -57 5 5 8 22 6 38 -2 16 -6 25 -9 19z"/>
<path d="M7753 9118 c5 -59 27 -62 27 -4 0 34 -4 46 -15 46 -12 0 -14 -10 -12
-42z"/>
<path d="M7811 9143 c1 -10 5 -31 9 -48 7 -28 8 -28 9 12 0 23 -3 45 -9 48 -5
3 -9 -2 -9 -12z"/>
<path d="M7847 9153 c-4 -3 -6 -22 -6 -42 l1 -36 8 40 c8 42 8 49 -3 38z"/>
<path d="M6470 8805 c0 -13 11 -15 57 -13 81 4 85 28 4 28 -48 0 -61 -3 -61
-15z"/>
<path d="M6404 8739 c-13 -22 14 -27 129 -22 89 5 117 9 117 19 0 11 -25 14
-119 14 -76 0 -122 -4 -127 -11z"/>
<path d="M6523 8672 c-91 -2 -113 -5 -113 -17 0 -12 21 -15 114 -15 72 0 117
4 122 11 12 20 -11 24 -123 21z"/>
<path d="M6477 8603 c-15 -14 -5 -22 37 -28 45 -7 92 8 81 26 -7 10 -108 13
-118 2z"/>
<path d="M5730 8825 l0 -66 96 3 95 3 3 63 2 62 -98 0 -98 0 0 -65z"/>
<path d="M8118 8318 c-27 -7 -38 -16 -43 -35 -8 -33 5 -45 31 -30 12 7 35 20
51 29 16 9 54 19 84 22 54 6 54 6 22 -9 -17 -8 -34 -19 -38 -25 -3 -5 -17 -7
-31 -4 -13 3 -24 2 -24 -3 0 -16 45 -31 74 -26 26 5 27 4 17 -16 -7 -11 -16
-21 -21 -21 -17 0 -11 -26 10 -45 18 -17 22 -17 36 -4 14 15 74 152 74 170 0
12 -195 10 -242 -3z"/>
<path d="M8070 8163 c1 -20 19 -33 58 -39 47 -7 56 5 20 30 -23 16 -78 22 -78
9z"/>
<path d="M2320 8465 c0 -48 3 -56 16 -51 9 3 20 6 25 6 6 0 9 21 7 48 -3 40
-6 47 -25 50 -22 3 -23 0 -23 -53z"/>
<path d="M2026 8373 c-17 -17 -2 -46 39 -75 25 -18 45 -37 45 -42 0 -6 7 2 15
18 15 29 15 31 -12 53 -38 32 -79 54 -87 46z"/>
<path d="M2572 8330 c-36 -22 -43 -50 -12 -50 11 0 20 4 20 9 0 5 9 13 20 16
20 6 27 29 12 39 -5 3 -23 -4 -40 -14z"/>
<path d="M2530 8159 c0 -16 78 -100 84 -90 3 4 8 26 12 48 6 39 5 40 -26 47
-48 9 -70 7 -70 -5z"/>
<path d="M2002 8138 c5 -34 48 -36 84 -4 l29 25 -58 1 c-55 0 -58 -1 -55 -22z"/>
<path d="M2147 8022 c-45 -45 -55 -60 -45 -70 20 -20 31 -14 86 41 50 51 52
54 34 70 -17 16 -21 13 -75 -41z"/>
<path d="M2340 8013 c-1 -5 -5 -27 -9 -50 -8 -39 1 -61 12 -30 3 9 13 7 37 -7
31 -18 33 -18 27 -2 -4 10 -10 35 -13 57 -6 33 -10 39 -30 39 -13 0 -24 -3
-24 -7z"/>
<path d="M7380 8339 c0 -37 183 -209 222 -209 5 0 8 15 8 34 0 18 3 60 6 93
l6 59 -53 12 c-30 6 -84 15 -121 18 -55 5 -68 4 -68 -7z m146 -35 c52 -15 84
-36 84 -55 0 -8 -44 10 -105 43 -11 6 -31 14 -45 19 -18 5 -20 8 -7 8 11 1 43
-6 73 -15z"/>
<path d="M4270 8396 c0 -7 8 -20 17 -27 15 -12 16 -12 10 4 -4 10 -7 23 -7 28
0 5 -4 9 -10 9 -5 0 -10 -6 -10 -14z"/>
<path d="M4321 8381 c-1 -27 2 -32 11 -23 8 8 8 17 0 34 -10 22 -11 21 -11
-11z"/>
<path d="M4882 8090 c0 -14 2 -19 5 -12 2 6 2 18 0 25 -3 6 -5 1 -5 -13z"/>
<path d="M4944 7941 c3 -4 -10 -7 -29 -5 -19 1 -35 -2 -35 -7 0 -5 23 -9 51
-9 28 0 48 4 45 9 -4 5 0 12 6 14 7 3 0 6 -15 6 -16 1 -26 -3 -23 -8z"/>
<path d="M3196 8307 c-10 -37 -7 -64 9 -77 13 -11 15 -6 15 38 0 54 -14 77
-24 39z"/>
<path d="M3160 8273 c0 -23 5 -45 10 -48 13 -8 13 55 0 75 -7 11 -10 4 -10
-27z"/>
<path d="M4236 8213 c-3 -4 -6 -24 -6 -45 l0 -38 55 0 55 0 0 35 c0 20 -6 37
-12 39 -28 9 -87 14 -92 9z"/>
<path d="M4355 8175 c0 -30 4 -45 13 -45 9 0 12 12 10 42 -4 57 -24 60 -23 3z"/>
<path d="M6019 8103 c-13 -16 -12 -17 4 -4 9 7 17 15 17 17 0 8 -8 3 -21 -13z"/>
<path d="M6068 7962 l-48 -3 0 -60 0 -59 55 0 55 0 0 59 c0 33 -3 61 -7 63 -5
2 -29 2 -55 0z"/>
<path d="M6695 7828 c-59 -35 -97 -96 -103 -164 -4 -48 1 -70 34 -153 39 -100
51 -121 65 -121 20 0 7 67 -26 140 -21 47 -35 93 -35 116 1 127 123 207 230
152 93 -48 116 -145 65 -271 -29 -71 -42 -137 -28 -137 17 0 27 20 64 115 57
150 40 247 -54 312 -56 39 -155 44 -212 11z"/>
<path d="M3230 7781 c0 -19 7 -20 193 -18 163 2 192 4 192 17 0 13 -29 15
-192 18 -186 2 -193 2 -193 -17z"/>
<path d="M3420 7250 c0 -5 4 -10 9 -10 6 0 13 5 16 10 3 6 -1 10 -9 10 -9 0
-16 -4 -16 -10z"/>
<path d="M3237 7144 c-15 -16 -5 -24 28 -24 19 0 35 5 35 10 0 6 -6 10 -14 10
-8 0 -21 2 -28 5 -8 3 -17 2 -21 -1z"/>
<path d="M3547 7143 c-15 -14 -6 -23 23 -23 20 0 30 5 30 15 0 15 -40 21 -53
8z"/>
<path d="M1340 7740 c-44 -44 -47 -55 -25 -84 8 -11 15 -28 15 -38 0 -21 12
-23 40 -6 15 10 27 10 51 1 29 -11 31 -11 45 22 8 19 14 43 14 54 0 19 -71 91
-90 91 -6 0 -28 -18 -50 -40z"/>
<path d="M1341 7557 c-25 -13 -46 -27 -47 -32 -4 -12 94 -85 113 -85 7 0 27
13 45 29 18 16 42 30 52 32 15 3 4 13 -41 42 -34 20 -65 37 -70 37 -4 0 -28
-11 -52 -23z"/>
<path d="M1364 7310 c-12 -5 -31 -21 -42 -37 -18 -25 -19 -32 -7 -59 10 -24
24 -35 60 -46 l47 -16 34 37 c18 20 34 43 34 52 0 22 -62 79 -85 78 -11 0 -30
-4 -41 -9z"/>
<path d="M8730 7420 c0 -5 12 -10 26 -10 14 0 23 4 19 10 -3 6 -15 10 -26 10
-10 0 -19 -4 -19 -10z"/>
<path d="M8611 7258 c-17 -23 -30 -47 -28 -52 2 -6 32 -26 68 -44 51 -27 70
-45 94 -84 35 -58 78 -98 106 -98 22 0 25 16 5 27 -25 14 -106 144 -106 170 0
21 -2 23 -15 13 -22 -18 -58 -5 -84 31 -19 26 -21 35 -12 55 16 35 7 29 -28
-18z"/>
<path d="M6267 7391 c-4 -17 -3 -21 5 -13 5 5 8 16 6 23 -3 8 -7 3 -11 -10z"/>
<path d="M6000 7256 c0 -2 7 -6 15 -10 8 -3 15 -1 15 4 0 6 -7 10 -15 10 -8 0
-15 -2 -15 -4z"/>
<path d="M2726 7294 c-39 -39 1 -106 52 -88 21 7 28 17 30 42 2 18 -2 40 -9
48 -15 19 -54 18 -73 -2z m62 -6 c20 -20 14 -55 -10 -62 -40 -10 -48 -7 -48
22 0 29 16 52 35 52 6 0 16 -5 23 -12z"/>
<path d="M4111 7036 c-17 -17 -31 -36 -31 -41 0 -15 51 -75 64 -75 6 0 27 15
45 34 33 34 33 35 15 58 -10 13 -28 31 -40 40 -20 16 -23 15 -53 -16z m63 -32
c3 -8 -1 -26 -10 -40 -13 -19 -20 -22 -30 -13 -15 12 -19 51 -7 62 12 13 41 7
47 -9z"/>
<path d="M1010 6435 l0 -415 688 3 687 2 3 413 2 412 -690 0 -690 0 0 -415z
m1253 369 l77 -7 0 -348 c0 -191 -3 -354 -6 -363 -6 -14 -71 -16 -640 -16
l-634 0 0 363 c0 200 3 367 7 370 8 9 1095 9 1196 1z"/>
<path d="M1591 6506 c-28 -16 -50 -52 -51 -84 0 -37 25 -75 85 -130 65 -59 64
-59 141 15 80 78 92 136 39 189 -28 28 -79 32 -105 9 -15 -14 -18 -14 -30 0
-15 18 -47 19 -79 1z m85 -43 c13 -17 15 -17 25 0 22 36 89 8 89 -39 0 -25
-81 -114 -103 -114 -23 0 -97 87 -97 114 0 49 58 75 86 39z"/>
<path d="M1652 5998 c3 -7 25 -14 51 -16 37 -2 47 0 47 12 0 12 -12 16 -51 16
-36 0 -49 -4 -47 -12z"/>
<path d="M4638 5643 c-3 -65 -4 -228 -2 -363 2 -135 3 -273 3 -308 l1 -62 523
2 522 3 3 423 2 422 -523 0 -524 0 -5 -117z m482 -118 l0 -165 -207 0 -208 0
-2 165 -3 165 210 0 210 0 0 -165z m475 156 c-3 -5 -1 -12 5 -16 6 -4 10 -65
10 -156 l0 -149 -210 0 -210 0 0 165 0 165 206 0 c124 0 203 -4 199 -9z m-473
-538 c3 -82 3 -151 1 -155 -4 -7 -412 -12 -413 -5 -1 1 -4 71 -7 155 l-6 152
211 0 210 0 4 -147z m476 135 c1 -7 3 -76 4 -153 l2 -140 -204 0 -205 0 -3
153 -3 152 204 0 c155 0 204 -3 205 -12z"/>
<path d="M4723 5585 c0 -27 2 -38 4 -22 2 15 2 37 0 50 -2 12 -4 0 -4 -28z"/>
<path d="M4722 5480 c0 -19 2 -27 5 -17 2 9 2 25 0 35 -3 9 -5 1 -5 -18z"/>
<path d="M5201 5634 c0 -11 3 -14 6 -6 3 7 2 16 -1 19 -3 4 -6 -2 -5 -13z"/>
<path d="M5202 5585 c0 -16 2 -22 5 -12 2 9 2 23 0 30 -3 6 -5 -1 -5 -18z"/>
<path d="M5203 5470 c0 -25 2 -35 4 -22 2 12 2 32 0 45 -2 12 -4 2 -4 -23z"/>
<path d="M4724 5150 c0 -58 1 -81 3 -52 2 28 2 76 0 105 -2 28 -3 5 -3 -53z"/>
<path d="M5203 5085 c0 -22 2 -30 4 -17 2 12 2 30 0 40 -3 9 -5 -1 -4 -23z"/>
<path d="M4154 5686 c-30 -30 -34 -40 -34 -84 0 -43 4 -55 30 -79 51 -49 118
-48 171 3 74 70 18 194 -88 194 -38 0 -50 -5 -79 -34z m109 -8 c33 -17 46 -39
47 -75 0 -36 -38 -73 -75 -73 -12 0 -34 9 -49 21 -37 29 -37 89 0 118 30 24
46 26 77 9z"/>
<path d="M5988 5680 c-38 -38 -40 -43 -35 -86 8 -78 74 -126 142 -104 138 45
113 230 -31 230 -29 0 -44 -8 -76 -40z m119 -5 c12 -8 27 -31 33 -50 15 -45
-5 -80 -51 -90 -85 -19 -137 99 -61 140 35 18 53 18 79 0z"/>
<path d="M4115 5371 c-47 -22 -99 -74 -114 -114 -17 -44 -13 -127 8 -172 81
-176 343 -161 406 23 29 85 10 166 -51 224 -63 58 -171 75 -249 39z m183 -48
c76 -56 94 -148 47 -230 -60 -101 -196 -106 -269 -10 -65 85 -36 211 59 253
42 20 129 13 163 -13z"/>
<path d="M4152 5280 c-46 -28 -68 -82 -53 -131 22 -72 92 -98 166 -64 38 18
55 51 55 103 0 44 -20 76 -60 97 -39 20 -69 19 -108 -5z m88 -50 c40 -40 13
-110 -42 -110 -21 0 -48 37 -48 67 0 26 32 63 55 63 8 0 24 -9 35 -20z"/>
<path d="M5994 5371 c-74 -33 -124 -115 -124 -202 0 -54 48 -139 97 -173 78
-54 197 -47 269 17 92 80 102 202 27 303 -50 67 -183 94 -269 55z m199 -54
c67 -51 85 -159 38 -226 -78 -109 -233 -96 -291 24 -38 79 -5 179 71 219 51
25 137 17 182 -17z"/>
<path d="M6044 5284 c-39 -19 -64 -62 -64 -112 0 -54 51 -102 110 -102 48 0
104 45 114 91 8 42 -16 95 -56 119 -39 24 -62 25 -104 4z m85 -60 c25 -32 26
-52 5 -82 -30 -43 -104 -17 -104 37 0 66 61 93 99 45z"/>
<path d="M4165 4767 c-125 -49 -213 -163 -251 -326 -45 -187 30 -377 179 -451
33 -16 71 -30 84 -30 23 0 23 -1 23 -125 l0 -125 -110 0 c-103 0 -110 -1 -110
-20 0 -11 7 -20 15 -20 12 0 15 -18 15 -105 0 -87 3 -105 15 -105 12 0 15 18
15 105 l0 105 108 0 c59 0 113 -4 121 -9 11 -7 13 -28 8 -100 l-6 -91 89 0 88
0 -5 98 c-6 95 -5 99 16 105 11 3 21 12 21 21 0 14 -16 16 -110 16 l-110 0 0
120 c0 88 3 122 13 124 85 27 118 46 173 101 82 81 108 146 108 270 0 272
-211 512 -389 442z m116 -67 c47 -13 131 -98 164 -164 93 -191 55 -391 -93
-484 -26 -16 -57 -33 -69 -37 -19 -5 -23 -3 -23 17 0 16 16 34 56 62 77 56
141 146 128 180 -11 28 -38 17 -66 -27 -15 -23 -47 -62 -72 -87 l-46 -44 0
225 c0 124 -2 228 -5 231 -3 3 -17 3 -30 0 l-25 -4 0 -220 0 -219 -33 26 c-18
15 -48 48 -67 75 -34 48 -63 63 -73 37 -13 -36 70 -146 138 -183 27 -14 35
-25 35 -46 0 -25 -2 -26 -30 -18 -73 21 -147 88 -180 162 -59 133 -16 352 90
458 66 66 121 82 201 60z"/>
<path d="M4811 4005 l-2 -535 346 0 345 0 0 535 0 535 -344 0 -344 0 -1 -535z
m147 53 c19 -19 14 -56 -8 -68 -24 -13 -38 -6 -50 24 -15 42 27 75 58 44z
m-10 -137 c8 -5 12 -21 10 -37 -2 -23 -9 -30 -30 -32 -32 -4 -50 22 -37 56 9
22 33 28 57 13z"/>
<path d="M6299 4243 c-6 -15 -17 -46 -25 -68 -30 -81 -102 -175 -135 -175 -5
0 -9 54 -9 121 l0 120 -27 -3 -28 -3 1 -112 c1 -62 -2 -113 -5 -113 -16 0 -54
36 -96 90 -26 33 -53 60 -61 60 -18 0 -19 -52 0 -88 20 -39 109 -120 140 -128
l26 -6 0 -114 0 -114 -110 0 c-103 0 -110 -1 -110 -20 0 -11 7 -20 15 -20 9 0
15 -6 14 -12 -6 -46 3 -198 11 -198 6 0 10 34 10 83 0 134 -7 127 125 127 63
0 120 -3 129 -6 13 -5 16 -24 16 -100 l0 -94 60 0 60 0 0 99 c0 90 2 99 20
104 11 3 20 12 20 21 0 14 -16 16 -105 16 l-105 0 0 108 1 107 56 35 c60 37
124 121 144 189 22 76 -6 160 -32 94z"/>
<path d="M7528 6488 c-43 -11 -105 -68 -124 -114 -36 -86 -4 -192 73 -243 82
-55 169 -51 239 12 95 83 98 213 7 299 -55 52 -117 67 -195 46z m70 -62 c4
-19 -13 -36 -35 -36 -14 0 -18 42 -6 54 12 12 38 1 41 -18z m44 -83 c10 -9 18
-30 18 -48 0 -31 -2 -33 -45 -39 -25 -4 -49 -4 -55 -1 -5 3 -10 0 -10 -8 0
-17 21 -27 56 -27 31 0 33 -36 3 -45 -55 -18 -116 47 -105 111 12 62 94 97
138 57z"/>
<path d="M7573 6318 c-26 -34 -25 -39 4 -32 39 9 52 23 33 34 -20 13 -26 12
-37 -2z"/>
<path d="M2768 6594 c-10 -22 -10 -28 6 -40 37 -26 76 22 44 54 -19 19 -38 14
-50 -14z"/>
<path d="M8948 6423 c6 -2 18 -2 25 0 6 3 1 5 -13 5 -14 0 -19 -2 -12 -5z"/>
<path d="M8840 6360 c0 -55 4 -57 69 -44 29 6 31 9 31 50 l0 44 -50 0 -50 0 0
-50z"/>
<path d="M8970 6366 c0 -48 9 -56 61 -56 28 0 29 1 29 50 l0 50 -45 0 -45 0 0
-44z"/>
<path d="M8425 6265 c-4 -11 -14 -34 -23 -52 -9 -18 -13 -35 -9 -39 4 -4 7 -1
7 7 0 12 2 12 9 0 12 -18 51 -4 51 19 0 10 -6 33 -14 51 -13 30 -15 32 -21 14z"/>
<path d="M8677 5733 c-9 -8 -9 -649 -1 -691 4 -21 11 -29 20 -25 20 8 21 723
1 723 -8 0 -17 -3 -20 -7z"/>
<path d="M8860 5706 c0 -58 -5 -63 -60 -56 -44 6 -50 4 -50 -12 0 -15 8 -18
55 -18 l56 0 -3 -77 c-3 -67 -6 -78 -22 -81 -11 -3 -16 0 -12 7 4 6 0 11 -8
11 -9 0 -16 -4 -16 -9 0 -5 -10 -11 -22 -13 -14 -2 -1 -7 30 -12 l53 -8 -3
-76 c-2 -55 -7 -76 -15 -74 -7 1 -13 -2 -13 -8 0 -5 4 -10 10 -10 23 0 31 -40
20 -103 -12 -67 -4 -127 18 -135 9 -3 11 83 11 352 -1 298 -3 356 -15 356 -9
0 -14 -12 -14 -34z"/>
<path d="M9035 5730 c-4 -6 -6 -20 -5 -33 4 -43 2 -45 -50 -41 -38 2 -50 0
-50 -11 0 -9 15 -16 38 -20 50 -8 64 -11 85 -20 17 -7 18 -2 16 51 -1 33 -4
65 -7 72 -5 15 -19 16 -27 2z"/>
<path d="M8480 5660 c-25 -25 -25 -37 1 -45 38 -12 80 45 43 59 -22 8 -22 8
-44 -14z"/>
<path d="M8540 5550 c-30 -33 -60 -60 -66 -60 -6 0 -25 20 -44 45 -38 51 -60
58 -60 19 0 -34 68 -104 102 -104 36 0 85 40 135 111 12 16 8 49 -6 49 -3 0
-31 -27 -61 -60z"/>
<path d="M9046 5548 c-13 -65 -24 -101 -25 -85 -1 14 -8 17 -38 14 -55 -6 -51
-23 7 -31 28 -4 57 -9 65 -12 12 -5 15 6 15 65 0 68 -14 97 -24 49z"/>
<path d="M9047 5383 c-4 -3 -7 -18 -7 -32 0 -30 -13 -53 -26 -49 -19 5 -74
-12 -74 -23 0 -8 4 -8 15 1 11 9 15 9 15 1 0 -8 11 -11 28 -9 15 2 32 -3 38
-11 21 -26 34 -1 34 65 0 59 -6 74 -23 57z"/>
<path d="M8466 5301 c-21 -24 -13 -41 18 -41 26 0 61 34 51 49 -10 18 -50 13
-69 -8z"/>
<path d="M8772 5294 c-11 -12 -8 -14 20 -13 18 0 26 3 18 6 -8 3 -17 9 -20 13
-3 4 -11 2 -18 -6z"/>
<path d="M8579 5238 c-9 -7 -30 -32 -48 -55 -18 -24 -39 -43 -46 -43 -7 0 -31
20 -53 45 -46 52 -62 56 -62 17 0 -37 68 -104 104 -104 49 0 153 101 140 136
-7 19 -15 20 -35 4z"/>
<path d="M9046 5203 c-3 -3 -6 -19 -6 -35 0 -31 -6 -35 -62 -41 -22 -3 -39 0
-42 7 -3 6 -4 0 -3 -14 2 -23 7 -25 55 -28 50 -3 52 -4 52 -33 0 -16 4 -29 9
-29 13 0 21 38 21 107 0 58 -8 81 -24 66z"/>
<path d="M8759 5118 c6 -17 17 -24 45 -26 20 -2 36 0 36 5 -1 20 -20 35 -54
40 -34 4 -36 3 -27 -19z"/>
<path d="M7304 5359 c-17 -19 -17 -21 9 -46 26 -27 27 -27 42 -8 37 49 -10 99
-51 54z"/>
<path d="M1480 5339 c0 -20 4 -21 55 -17 30 3 58 7 61 11 15 15 -12 27 -62 27
-48 0 -54 -2 -54 -21z"/>
<path d="M1237 5270 c-5 -20 0 -20 288 -20 284 0 293 1 298 20 5 20 0 20 -288
20 -284 0 -293 -1 -298 -20z"/>
<path d="M1333 4892 c-32 -3 -33 -5 -33 -47 0 -41 1 -43 33 -46 67 -8 77 -2
77 46 0 47 -10 53 -77 47z"/>
<path d="M1493 4893 c-8 -3 -13 -23 -13 -49 l0 -44 50 0 50 0 0 44 c0 41 -2
44 -31 50 -35 7 -38 7 -56 -1z"/>
<path d="M1668 4893 c-14 -3 -18 -15 -18 -47 0 -23 2 -45 4 -47 3 -2 25 -3 50
-1 l46 4 0 49 c0 49 0 49 -32 48 -18 -1 -41 -3 -50 -6z"/>
<path d="M1304 4706 c-3 -8 -4 -31 -2 -52 l3 -39 53 -3 52 -3 0 55 0 56 -50 0
c-34 0 -52 -5 -56 -14z"/>
<path d="M1487 4713 c-15 -4 -17 -13 -15 -51 l3 -47 50 0 50 0 3 46 c3 41 0
47 -20 53 -25 6 -43 6 -71 -1z m53 -48 c0 -8 -9 -15 -20 -15 -11 0 -20 7 -20
15 0 8 9 15 20 15 11 0 20 -7 20 -15z"/>
<path d="M1673 4713 c-28 -4 -33 -8 -33 -31 0 -63 9 -73 59 -70 l46 3 3 48 c2
26 -1 47 -7 47 -5 0 -15 2 -23 3 -7 2 -28 2 -45 0z"/>
<path d="M1304 4503 c2 -16 4 -38 5 -50 1 -21 6 -23 51 -23 l50 0 0 50 0 50
-54 0 c-54 0 -55 0 -52 -27z"/>
<path d="M1480 4480 l0 -50 50 0 50 0 0 50 0 50 -50 0 -50 0 0 -50z"/>
<path d="M1650 4480 l0 -50 50 0 50 0 0 50 0 50 -50 0 -50 0 0 -50z"/>
<path d="M1293 4323 c9 -2 25 -2 35 0 9 3 1 5 -18 5 -19 0 -27 -2 -17 -5z"/>
<path d="M7392 4820 c-37 -23 -52 -54 -52 -111 0 -54 22 -93 64 -113 63 -30
120 -15 170 44 30 37 33 77 9 127 -32 69 -123 94 -191 53z m106 -66 c14 -10
22 -26 22 -44 0 -47 -67 -79 -98 -48 -17 17 -15 68 5 90 20 22 42 23 71 2z"/>
<path d="M2200 4295 l0 -55 75 0 75 0 0 55 0 55 -75 0 -75 0 0 -55z"/>
<path d="M1376 4029 c-85 -67 -71 -191 27 -242 48 -25 95 -17 142 24 76 67 63
179 -27 225 -41 21 -110 18 -142 -7z"/>
<path d="M3018 4025 c-18 -24 -18 -24 56 -102 64 -67 77 -76 93 -67 10 6 18
16 18 23 0 12 -135 171 -144 171 -3 0 -14 -11 -23 -25z"/>
<path d="M7225 3964 c-44 -7 -81 -13 -82 -13 -2 -1 -3 -20 -3 -43 0 -70 11
-75 62 -31 25 21 61 50 79 64 19 15 32 29 29 31 -3 2 -41 -1 -85 -8z"/>
<path d="M8636 3594 c-20 -19 -20 -35 -2 -60 19 -25 50 -9 54 29 4 34 -29 54
-52 31z"/>
<path d="M4450 2833 c-14 -9 -39 -29 -57 -44 -17 -15 -36 -28 -43 -31 -8 -2
-6 -23 8 -72 l18 -68 27 35 c31 40 34 59 12 77 -8 7 -15 19 -15 26 0 22 37 16
43 -6 7 -27 36 -25 77 5 43 32 64 18 34 -22 -13 -18 -37 -32 -63 -38 -38 -10
-81 -51 -81 -77 0 -5 34 -8 75 -8 41 0 75 4 75 8 0 5 -9 17 -20 27 -11 10 -20
24 -20 32 0 23 26 14 50 -19 l24 -32 12 54 c7 30 13 60 14 66 0 10 -123 104
-138 104 -4 0 -19 -8 -32 -17z m44 -30 c-23 -17 -48 -17 -38 0 19 33 26 38 41
25 13 -10 12 -14 -3 -25z"/>
<path d="M168 493 c6 -2 18 -2 25 0 6 3 1 5 -13 5 -14 0 -19 -2 -12 -5z"/>
</g>
</svg>
